#N canvas 138 776 658 421 10;
#X declare -lib libdir -lib ggee -stdpath ggee;
#X declare -lib libdir -lib ggee -stdpath ggee;
#X declare -lib libdir -lib ggee -stdpath ggee;
#X declare -lib libdir -lib ggee -stdpath ggee;
#X obj 105 120 hsl 80 15 0 1 0 0 \$0-seuil-snd \$0-seuil-rcv seuil:6.7dB
85 7 0 10 -257985 -1 -1 5360 1;
#X obj 105 137 hsl 80 15 0 1 0 0 \$0-lmin-snd \$0-lmin-rcv lmin:92.8798ms
85 7 0 10 -4032 -1 -1 2960 1;
#X obj 105 154 hsl 80 15 0 1 0 0 \$0-hmin-snd \$0-hmin-rcv hmin:139.32ms
85 7 0 10 -260097 -1 -1 3460 1;
#X obj 70 234 i;
#X msg 70 289 label seuil:\$1dB;
#X obj 49 336 s \$2-thres;
#X obj 219 192 r \$0-lmin-snd;
#X obj 219 345 s \$0-lmin-rcv;
#X obj 219 213 * 8;
#X obj 219 235 pow 2;
#X obj 219 257 i;
#X obj 219 279 * 512;
#X obj 219 301 / 44.1;
#X msg 218 322 label lmin:\$1ms;
#X obj 185 374 s \$2-lmin;
#X obj 363 211 * 8;
#X obj 363 233 pow 2;
#X obj 363 255 i;
#X obj 363 277 * 512;
#X obj 363 299 / 44.1;
#X obj 363 190 r \$0-hmin-snd;
#X msg 363 321 label hmin:\$1ms;
#X obj 363 343 s \$0-hmin-rcv;
#X obj 329 372 s \$2-hmin;
#X obj 70 191 r \$0-seuil-snd;
#X obj 313 97 r \$3-Seuil-snd;
#X obj 442 86 s \$3-Seuil-rcv;
#X obj 313 116 r \$3-Lmin-snd;
#X obj 313 133 r \$3-Hmin-snd;
#X obj 66 362 s \$3-Seuil-rcv;
#X obj 258 397 s \$3-Lmin-rcv;
#X obj 410 388 s \$3-Hmin-rcv;
#X floatatom 29 251 5 0 0 0 - - -;
#X obj 70 312 s \$0-seuil-rcv;
#X obj 70 212 * 100;
#X obj 70 256 / 10;
#X obj 331 26 loadbang;
#X msg 331 52 0.4;
#X obj 105 173 tgl 15 0 \$0-mode-snd \$0-mode-rcv mode:silence 17 7
0 10 -262144 -1 -1 1 1;
#X obj 536 176 r \$0-mode-snd;
#X obj 502 358 s \$2-mode;
#X obj 536 255 sel 0 1;
#X obj 536 329 s \$0-mode-rcv;
#X msg 536 281 label mode:diff;
#X msg 547 304 label mode:silence;
#X obj 23 9 apf \$1-SETTING \$2-Seuil \$0-seuil 2;
#X obj 22 30 apf \$1-SETTING \$2-Lmin \$0-lmin 2;
#X obj 23 52 apf \$1-SETTING \$2-Hmin \$0-hmin 2;
#X obj 23 71 apf \$1-SETTING \$2-Mode \$0-mode 2;
#X connect 3 0 35 0;
#X connect 4 0 33 0;
#X connect 6 0 8 0;
#X connect 8 0 9 0;
#X connect 9 0 10 0;
#X connect 10 0 11 0;
#X connect 10 0 14 0;
#X connect 11 0 12 0;
#X connect 12 0 13 0;
#X connect 13 0 7 0;
#X connect 15 0 16 0;
#X connect 16 0 17 0;
#X connect 17 0 18 0;
#X connect 17 0 23 0;
#X connect 18 0 19 0;
#X connect 19 0 21 0;
#X connect 20 0 15 0;
#X connect 21 0 22 0;
#X connect 24 0 32 0;
#X connect 24 0 34 0;
#X connect 34 0 3 0;
#X connect 35 0 4 0;
#X connect 35 0 5 0;
#X connect 36 0 37 0;
#X connect 37 0 0 0;
#X connect 37 0 1 0;
#X connect 37 0 2 0;
#X connect 39 0 40 0;
#X connect 39 0 41 0;
#X connect 41 0 43 0;
#X connect 41 1 44 0;
#X connect 43 0 42 0;
#X connect 44 0 42 0;
#X coords 0 -1 1 1 180 90 1 100 100;
