#N canvas 372 487 899 388 10;
#X obj 277 14 loadbang;
#X obj 277 58 * 44100;
#X msg 277 80 resize \$1;
#X obj 277 103 s \$1;
#X obj 175 59 table \$1-len 1;
#X obj 112 138 bng 15 250 50 0 empty empty load 17 7 0 10 -4034 -1
-1;
#X obj 132 172 bng 15 250 50 0 empty empty save 17 7 0 10 -258113 -1
-1;
#X obj 217 109 tgl 15 0 empty empty play 17 7 0 10 -257985 -1 -1 0
1;
#X obj 353 190 tabread \$1-len;
#X obj 356 150 sel 1 0;
#X msg 353 212 0 \$1;
#X msg 387 212 stop;
#X msg 451 237 0;
#X obj 451 211 del;
#X obj 451 190 / 44.1;
#X msg 353 171 0;
#X obj 11 114 cnv 10 100 10 empty \$0-time sec:0 5 5 0 10 -233017 -66577
0;
#X obj 347 45 r \$1-setlen;
#X msg 347 68 0 \$1;
#X obj 496 145 / 4410;
#X obj 496 167 i;
#X obj 496 189 / 10;
#X msg 496 211 label sec:\$1;
#X obj 496 233 s \$0-time;
#X obj 440 43 s \$1-setlen;
#X msg 440 21 50000;
#X obj 13 294 soundfiler;
#X obj 58 224 symbol \$1;
#X obj 13 249 pack s s;
#X obj 195 206 symbol \$1;
#X obj 13 201 openpanel;
#X obj 168 161 savepanel;
#X obj 168 278 soundfiler;
#X obj 13 317 s \$1-setlen;
#X obj 168 231 pack s s f;
#X obj 217 185 r \$1-setlen;
#X msg 168 256 write -wave -nframes \$3 \$1 \$2;
#X obj 168 185 t s b;
#X obj 13 225 t s b;
#X floatatom 312 325 8 0 0 0 - - -, f 8;
#X obj 347 93 s \$1-len;
#X obj 353 301 outlet~;
#X msg 551 178 label;
#X obj 551 152 loadbang;
#X obj 27 13 r \$1-file-snd;
#X obj 196 350 s \$1-file-rcv;
#X obj 664 186 s \$0-dir;
#X obj 60 174 r \$0-dir;
#X obj 13 175 symbol;
#X obj 613 14 bng 15 250 50 0 empty empty empty 17 7 0 10 -262144 -1
-1;
#X obj 84 57 pack s s;
#X obj 110 32 r \$0-dir;
#X msg 84 78 symbol \$2/\$1;
#X obj 215 137 r \$0-dir;
#X obj 168 138 symbol;
#X obj 112 307 split_path;
#X obj 27 35 split_path;
#X obj 196 305 r \$1-file-snd;
#X obj 169 327 sel _;
#X obj 664 142 getdir 5;
#X symbolatom 644 208 0 0 0 0 - - -;
#X msg 664 164 symbol \$1/wavs;
#X obj 637 29 loadbang;
#X obj 637 119 t s b;
#X obj 637 256 pack s s;
#X obj 682 233 r \$0-dir;
#X msg 637 278 symbol \$2/\$1.wav;
#X obj 277 36 l f \$2;
#X obj 158 110 bng 15 250 50 0 empty empty reload 17 7 0 10 -262144
-1 -1;
#X obj 177 31 table \$1-r;
#X obj 426 280 tabplay~ \$1-r;
#X obj 426 302 outlet~;
#X obj 176 10 table \$1;
#X obj 353 238 tabplay~ \$1;
#X msg 13 271 read -resize \$1 \$2 \$2-r;
#X obj 768 141 r sloganDir;
#X msg 768 163 symbol \$1/rythm;
#X obj 726 90 s getSloganDir;
#X obj 637 50 t b b;
#X obj 637 95 symbol \$1;
#X symbolatom 649 317 0 0 0 0 - - -;
#X obj 637 71 del 20;
#X connect 1 0 2 0;
#X connect 2 0 3 0;
#X connect 5 0 48 0;
#X connect 6 0 54 0;
#X connect 7 0 9 0;
#X connect 8 0 10 0;
#X connect 8 0 14 0;
#X connect 8 0 39 0;
#X connect 9 0 15 0;
#X connect 9 1 11 0;
#X connect 10 0 70 0;
#X connect 10 0 73 0;
#X connect 11 0 70 0;
#X connect 11 0 73 0;
#X connect 12 0 7 0;
#X connect 13 0 12 0;
#X connect 14 0 13 0;
#X connect 15 0 8 0;
#X connect 17 0 18 0;
#X connect 17 0 19 0;
#X connect 18 0 40 0;
#X connect 19 0 20 0;
#X connect 20 0 21 0;
#X connect 21 0 22 0;
#X connect 22 0 23 0;
#X connect 25 0 24 0;
#X connect 26 0 33 0;
#X connect 27 0 28 1;
#X connect 28 0 74 0;
#X connect 29 0 34 1;
#X connect 30 0 38 0;
#X connect 31 0 37 0;
#X connect 34 0 36 0;
#X connect 35 0 34 2;
#X connect 36 0 32 0;
#X connect 37 0 34 0;
#X connect 37 1 29 0;
#X connect 38 0 28 0;
#X connect 38 0 55 0;
#X connect 38 1 27 0;
#X connect 42 0 23 0;
#X connect 43 0 42 0;
#X connect 44 0 56 0;
#X connect 47 0 48 1;
#X connect 48 0 30 0;
#X connect 49 0 78 0;
#X connect 50 0 52 0;
#X connect 51 0 50 1;
#X connect 52 0 38 0;
#X connect 53 0 54 1;
#X connect 54 0 31 0;
#X connect 55 1 58 0;
#X connect 56 1 50 0;
#X connect 57 0 58 1;
#X connect 58 1 45 0;
#X connect 59 0 61 0;
#X connect 61 0 46 0;
#X connect 61 0 60 0;
#X connect 62 0 78 0;
#X connect 63 0 64 0;
#X connect 64 0 66 0;
#X connect 65 0 64 1;
#X connect 66 0 38 0;
#X connect 66 0 80 0;
#X connect 67 0 1 0;
#X connect 68 0 79 0;
#X connect 70 0 71 0;
#X connect 73 0 41 0;
#X connect 73 1 12 0;
#X connect 74 0 26 0;
#X connect 75 0 76 0;
#X connect 76 0 46 0;
#X connect 76 0 60 0;
#X connect 78 0 81 0;
#X connect 78 1 77 0;
#X connect 79 0 63 0;
#X connect 81 0 79 0;
#X coords 0 -1 1 1 250 25 1 10 100;
