#N canvas 28 343 450 414 12;
#X declare -stdpath hcs;
#X declare -stdpath ggee;
#X declare -stdpath ggee -stdpath motex;
#X declare -stdpath moonlib;
#X declare -lib zexy;
#X obj 125 39 s getSloganDir;
#X obj 125 18 bng 15 250 50 0 empty empty empty 17 7 0 10 -262144 -1
-1;
#X obj 124 63 r sloganDir;
#X symbolatom 124 86 0 0 0 0 - - -;
#N canvas 554 180 809 651 Bank 0;
#X obj 34 34 r BANK;
#X obj 77 110 pack s s;
#X obj 130 85 r sloganDir;
#X obj 77 217 text define BANKconfig;
#X obj 243 70 s BANK;
#X obj 34 60 symbol;
#X msg 243 44 oui;
#X obj 287 48 s getSloganDir;
#X obj 287 27 bng 15 250 50 0 empty empty empty 17 7 0 10 -262144 -1
-1;
#X obj 34 83 t b b s;
#X obj 55 288 text search BANKconfig;
#X msg 55 265 symbol length;
#X obj 55 312 text get BANKconfig;
#X obj 55 335 route list;
#X obj 55 358 route length;
#X obj 32 449 text search BANKconfig;
#X obj 32 472 text get BANKconfig;
#X obj 32 495 route list;
#X msg 32 426 symbol partB;
#X obj 32 518 route partB;
#X obj 32 403 t b b;
#X msg 117 518 0;
#X obj 55 380 s BANKlength;
#X obj 32 541 s BANKpartB;
#X obj 275 130 declare -stdpath hcs;
#X obj 332 383 folder_list;
#X obj 77 156 t s s;
#X msg 77 184 read \$1/config.txt;
#X obj 46 571 r BANKpartB;
#X floatatom 46 594 5 0 0 0 - - -, f 5;
#X floatatom 152 381 5 0 0 0 - - -, f 5;
#X obj 152 358 r BANKlength;
#X msg 77 132 symbol \$2/\$1;
#X obj 309 356 t b s b;
#X obj 332 453 list;
#X obj 332 478 t a;
#X obj 309 507 list;
#X msg 408 444 list;
#X obj 309 531 s bankFilesList;
#X msg 309 332 symbol \$1/20*.wav;
#X obj 529 50 r createNewBank;
#X obj 529 106 unpack s f f;
#X obj 529 134 pack s f f, f 12;
#X obj 529 180 unpack s f f;
#X obj 529 74 t a b, f 21;
#X msg 624 106 8;
#X msg 658 107 0;
#X obj 610 208 sel 0;
#X obj 569 286 text insert BANKconfig 0;
#X msg 569 232 length \$1;
#X msg 642 231 partB \$1;
#X obj 219 183 r toBANKconfig;
#X msg 639 153 clear;
#X obj 639 181 s toBANKconfig;
#X obj 529 343 pack s s;
#X obj 582 318 r sloganDir;
#X msg 529 365 symbol \$2/\$1;
#X msg 561 510 write \$1/config.txt;
#X obj 530 606 s createNewBank;
#X msg 530 582 testBank;
#X obj 569 261 list;
#X obj 561 536 s toBANKconfig;
#X obj 529 440 shell;
#X obj 530 17 declare -stdpath ggee;
#X msg 529 414 mkdir -p \$1;
#X obj 529 389 t s s;
#X obj 561 486 symbol;
#X obj 561 463 b;
#X connect 0 0 5 0;
#X connect 1 0 32 0;
#X connect 2 0 1 1;
#X connect 5 0 9 0;
#X connect 6 0 4 0;
#X connect 8 0 7 0;
#X connect 9 1 11 0;
#X connect 9 1 20 0;
#X connect 9 2 1 0;
#X connect 10 0 12 0;
#X connect 11 0 10 0;
#X connect 12 0 13 0;
#X connect 13 0 14 0;
#X connect 14 0 22 0;
#X connect 15 0 16 0;
#X connect 16 0 17 0;
#X connect 17 0 19 0;
#X connect 18 0 15 0;
#X connect 19 0 23 0;
#X connect 20 0 18 0;
#X connect 20 1 21 0;
#X connect 21 0 23 0;
#X connect 25 0 34 0;
#X connect 26 0 27 0;
#X connect 26 1 39 0;
#X connect 27 0 3 0;
#X connect 28 0 29 0;
#X connect 31 0 30 0;
#X connect 32 0 26 0;
#X connect 33 0 36 0;
#X connect 33 1 25 0;
#X connect 33 2 37 0;
#X connect 34 0 35 0;
#X connect 35 0 34 1;
#X connect 35 0 36 1;
#X connect 36 0 38 0;
#X connect 37 0 35 0;
#X connect 39 0 33 0;
#X connect 40 0 44 0;
#X connect 41 0 42 0;
#X connect 41 1 42 1;
#X connect 41 2 42 2;
#X connect 42 0 43 0;
#X connect 43 0 54 0;
#X connect 43 1 49 0;
#X connect 43 2 47 0;
#X connect 44 0 41 0;
#X connect 44 1 45 0;
#X connect 44 1 46 0;
#X connect 44 1 52 0;
#X connect 45 0 42 1;
#X connect 46 0 42 2;
#X connect 47 1 50 0;
#X connect 49 0 60 0;
#X connect 50 0 60 0;
#X connect 51 0 3 0;
#X connect 52 0 53 0;
#X connect 54 0 56 0;
#X connect 55 0 54 1;
#X connect 56 0 65 0;
#X connect 57 0 61 0;
#X connect 59 0 58 0;
#X connect 60 0 48 0;
#X connect 62 1 67 0;
#X connect 64 0 62 0;
#X connect 65 0 64 0;
#X connect 65 1 66 1;
#X connect 66 0 57 0;
#X connect 67 0 66 0;
#X restore 19 44 pd Bank;
#N canvas 196 402 423 203 sloganDir 0;
#X obj 111 56 loadbang;
#X obj 111 99 del 10;
#X obj 113 18 declare -stdpath ggee -stdpath motex;
#X obj 111 122 getenv HOME;
#X obj 111 168 s sloganDir;
#X obj 120 77 r getSloganDir;
#X msg 111 145 symbol \$1/Datas/slogan;
#X connect 0 0 1 0;
#X connect 1 0 3 0;
#X connect 3 0 6 0;
#X connect 5 0 1 0;
#X connect 6 0 4 0;
#X restore 19 15 pd sloganDir;
#X obj 124 139 s BANK;
#X msg 124 114 oui;
#N canvas 397 296 361 571 CLOCK 0;
#X obj 47 28 declare -stdpath moonlib;
#X floatatom 46 164 5 0 0 0 - - -, f 5;
#X msg 46 94 0 600;
#X obj 46 69 loadbang;
#X obj 86 184 r BANKlength;
#X floatatom 46 229 5 0 0 0 - - -, f 5;
#X obj 46 307 sel 0;
#X obj 46 353 t b f;
#X obj 76 375 mtof;
#X obj 76 398 osc~;
#X obj 46 465 *~;
#X obj 46 488 *~ 0.1;
#X obj 46 518 dac~;
#X msg 46 330 65;
#X msg 77 330 77;
#X obj 166 419 r metronomeVolume;
#X obj 46 442 vline~;
#X msg 46 419 1 0.5 \, 0 150 1;
#X obj 139 307 s STEP;
#X obj 166 442 pow 3;
#X obj 46 206 fmod 8;
#X obj 46 120 ndmetro 64 2;
#X obj 46 143 / 2;
#X obj 46 251 i;
#X obj 46 274 change;
#X obj 184 118 unpack f f;
#X obj 251 145 s TEMPOms;
#X msg 145 81 -1;
#X connect 1 0 20 0;
#X connect 2 0 21 0;
#X connect 2 0 25 0;
#X connect 3 0 2 0;
#X connect 4 0 20 1;
#X connect 5 0 18 0;
#X connect 5 0 23 0;
#X connect 6 0 13 0;
#X connect 6 1 14 0;
#X connect 7 0 17 0;
#X connect 7 1 8 0;
#X connect 8 0 9 0;
#X connect 9 0 10 1;
#X connect 10 0 11 0;
#X connect 11 0 12 0;
#X connect 11 0 12 1;
#X connect 13 0 7 0;
#X connect 14 0 7 0;
#X connect 15 0 19 0;
#X connect 16 0 10 0;
#X connect 17 0 16 0;
#X connect 19 0 11 1;
#X connect 20 0 5 0;
#X connect 21 0 22 0;
#X connect 22 0 1 0;
#X connect 23 0 24 0;
#X connect 24 0 6 0;
#X connect 25 1 26 0;
#X connect 27 0 21 0;
#X restore 22 179 pd CLOCK;
#X obj 324 42 loadbang;
#X msg 324 65 \; pd dsp 1;
#X obj 259 165 hsl 128 15 0 1 0 1 metronomeVolume metronomeVolume metronomeVolume
-2 -8 0 10 -262144 -1 -1 900 1;
#X obj 259 217 nbx 5 14 40 100 0 1 autoRecInputThreshold autoRecInputThreshold-rcv
autoRecInputThreshold 0 -8 0 10 -262144 -1 -1 80 256;
#X obj 260 276 nbx 5 14 0 100 0 1 autoRecOnRatio autoRecOnRatio-rcv
autoRecOnRatio 0 -8 0 10 -262144 -1 -1 25 256;
#N canvas 437 446 560 414 BankMix 1;
#X obj 330 93 r BANKlength;
#X obj 347 119 r TEMPOms;
#X obj 330 171 * 600, f 7;
#X obj 330 195 * 44.1;
#X obj 347 143 t b f;
#X msg 330 219 \; bankmixTab resize \$1;
#X msg 296 92 8;
#X obj 296 63 loadbang;
#X obj 91 85 table bankmixTab;
#X obj 117 129 r BANK;
#X obj 117 207 t b s, f 7;
#X obj 117 231 del 1;
#X obj 117 255 symbol, f 7;
#X obj 117 281 list prepend oui;
#X obj 226 255 r sloganDir;
#X obj 117 340 soundfiler;
#X obj 117 153 symbol;
#X msg 84 131 oui;
#X msg 117 308 read \$1/\$2/bankmix.wav bankmixTab;
#X obj 117 177 t s b;
#X msg 175 208 \; bankmixTab const 0;
#X connect 0 0 2 0;
#X connect 1 0 4 0;
#X connect 2 0 3 0;
#X connect 3 0 5 0;
#X connect 4 0 2 0;
#X connect 4 1 2 1;
#X connect 6 0 2 0;
#X connect 7 0 6 0;
#X connect 9 0 16 0;
#X connect 10 0 11 0;
#X connect 10 1 12 1;
#X connect 11 0 12 0;
#X connect 12 0 13 0;
#X connect 13 0 18 0;
#X connect 14 0 13 1;
#X connect 16 0 19 0;
#X connect 17 0 16 0;
#X connect 18 0 15 0;
#X connect 19 0 10 0;
#X connect 19 1 20 0;
#X restore 19 72 pd BankMix;
#X msg 157 114 non;
#X obj 200 226 bng 40 250 50 0 save save save 0 -8 0 14 -258113 -1
-1;
#X obj 142 225 bng 40 250 50 0 abort abort abort 0 -7 0 14 -4032 -1
-1;
#X msg 192 113 debitcredit;
#X obj 141 366 s createNewBank;
#X msg 141 342 testBank 8;
#N canvas 193 199 657 611 PlayOne 0;
#X obj 169 121 r bankFilesList;
#X obj 169 145 t a a, f 12;
#X obj 250 171 list length;
#X obj 144 255 list split;
#X obj 177 284 list split 1;
#X obj 144 178 list;
#X obj 211 226 random;
#X obj 144 90 t b b, f 10;
#X obj 144 63 bng 15 250 50 0 empty empty empty 17 7 0 10 -262144 -1
-1;
#X symbolatom 304 300 0 0 0 0 - - -;
#X obj 177 391 readsf~;
#X obj 367 189 r STEP;
#X obj 367 216 sel 0;
#X obj 399 242 sel;
#X obj 417 213 r BANKpartB;
#X obj 399 271 bng 15 250 50 0 empty empty empty 17 7 0 10 -262144
-1 -1;
#X msg 177 344 stop \, open \$1 \, 1;
#X obj 168 538 dac~;
#X obj 144 35 r wavStart;
#X obj 242 422 line~;
#X obj 177 455 *~;
#X obj 177 501 *~ 0.15;
#X msg 242 391 0 100;
#X obj 415 403 s playOne;
#X msg 292 392 0.5 200;
#X connect 0 0 1 0;
#X connect 1 0 5 1;
#X connect 1 1 2 0;
#X connect 2 0 6 1;
#X connect 3 1 4 0;
#X connect 4 0 16 0;
#X connect 4 0 22 0;
#X connect 5 0 3 0;
#X connect 6 0 3 1;
#X connect 7 0 5 0;
#X connect 7 1 6 0;
#X connect 8 0 7 0;
#X connect 10 0 20 0;
#X connect 11 0 12 0;
#X connect 12 1 13 0;
#X connect 13 0 15 0;
#X connect 13 0 24 0;
#X connect 13 0 23 0;
#X connect 14 0 13 1;
#X connect 16 0 10 0;
#X connect 18 0 8 0;
#X connect 19 0 20 1;
#X connect 20 0 21 0;
#X connect 21 0 17 0;
#X connect 21 0 17 1;
#X connect 22 0 19 0;
#X connect 24 0 19 0;
#X restore 20 132 pd PlayOne;
#N canvas 182 79 1298 762 AutoRec 0;
#X msg 536 55 44100 30;
#X obj 536 78 *;
#X floatatom 536 101 0 0 0 0 - - -;
#X obj 97 32 table autorecTab 1e+06;
#X obj 98 93 adc~;
#X obj 534 133 declare -lib zexy;
#X obj 144 165 limiter~;
#X obj 99 141 *~ 2;
#X obj 99 164 z~ 64;
#X obj 99 187 *~;
#X obj 99 287 tabwrite~ autorecTab;
#X obj 352 75 r STEP;
#X obj 352 124 sel 7;
#X obj 403 75 r BANKlength;
#X obj 403 98 - 1;
#X obj 277 237 env~;
#X obj 472 289 i;
#X obj 472 312 + 1;
#X obj 277 329 +;
#X obj 277 352 i;
#X obj 277 260 t f b, f 30;
#X obj 277 375 /;
#X msg 375 213 0;
#X obj 375 187 t b b;
#X obj 261 400 f;
#X floatatom 298 400 5 0 0 0 - - -, f 5;
#X obj 261 474 sel 0 1;
#X obj 282 506 bng 15 250 50 0 empty empty empty 17 7 0 10 -262144
-1 -1;
#X obj 261 424 spigot 1;
#X msg 357 342 0;
#X obj 249 507 bng 15 250 50 0 empty empty empty 17 7 0 10 -262144
-1 -1;
#X msg 596 220 1;
#X obj 459 461 tgl 15 0 empty empty empty 17 7 0 10 -262144 -1 -1 1
1;
#X obj 596 194 loadbang;
#X obj 261 451 > 0.25;
#X obj 638 427 tabplay~ autorecTab;
#X obj 600 700 dac~;
#X obj 656 316 == 0;
#X obj 638 649 *~ 0.15;
#X obj 638 364 sel 0 1;
#X obj 638 341 f;
#X msg 638 393 stop;
#X obj 277 306 > 80;
#X obj 300 283 r autoRecInputThreshold;
#X obj 332 451 r autoRecOnRatio;
#X obj 35 572 s autoRecInputThreshold-rcv;
#X obj 35 354 change;
#X obj 35 380 sel 0 1;
#X obj 35 426 del 100;
#X msg 35 450 0;
#X msg 56 403 stop;
#X msg 65 451 1;
#X obj 35 475 change;
#X obj 35 501 sel 0 1;
#X msg 35 540 color 0 22 22;
#X msg 133 540 color 13 0 22;
#X obj 759 98 bng 40 250 50 0 empty save save 0 -8 0 14 -258113 -1
-1;
#X obj 699 102 bng 40 250 50 0 empty abort abort 0 -7 0 14 -4032 -1
-1;
#X obj 759 148 t b b;
#X obj 867 164 date, f 16;
#X obj 932 191 time, f 10;
#X obj 867 217 pack f f f f f f;
#X obj 867 135 t b b;
#X obj 832 158 bng 15 250 50 0 empty empty empty 17 7 0 10 -262144
-1 -1;
#X msg 867 250 symbol \$1_\$2_\$3-\$4h:\$5mn:\$6s;
#X obj 867 306 list prepend oui;
#X obj 976 280 r BANK;
#X obj 867 355 list prepend oui;
#X obj 976 329 r sloganDir;
#X obj 917 406 r BANKlength;
#X obj 945 433 r TEMPOms;
#X obj 899 459 * 600, f 7;
#X obj 899 433 f 8;
#X obj 899 483 * 44.1;
#X obj 867 626 soundfiler;
#X obj 377 577 tabplay~ bankmixTab;
#X obj 95 62 table bankmixTabTmp 1e+06;
#X obj 311 691 tabwrite~ bankmixTabTmp;
#X obj 377 628 *~ 0.9;
#X obj 311 630 *~ 0.1;
#X obj 311 657 +~;
#X obj 867 515 list append 0;
#X obj 867 404 t a b;
#X msg 867 552 write -wave -normalize -nframes \$4 \$1/\$2/\$3.wav
autorecTab;
#X msg 815 584 write -wave -nframes \$4 \$1/\$2/bankmix.wav bankmixTabTmp
;
#X obj 1099 642 r BANK;
#X obj 1032 693 symbol oui;
#X obj 1099 668 symbol;
#X obj 1032 717 s BANK;
#X obj 1032 643 b;
#X obj 1032 667 del 1;
#X obj 1007 646 bng 15 250 50 0 empty empty empty 17 7 0 10 -262144
-1 -1;
#X msg 109 634 0.1;
#X obj 109 658 +;
#X obj 155 658 * 0.9;
#X floatatom 109 682 5 0 0 0 - - -, f 5;
#X msg 148 634 0;
#X obj 352 152 t b b b;
#X obj 452 190 s wavStart;
#X obj 561 509 r wavStart;
#X obj 596 540 r playOne;
#X msg 561 574 0.25;
#X msg 596 570 0.1;
#X obj 357 400 f;
#X obj 369 373 r wavStart;
#X obj 356 427 tgl 15 0 empty empty empty 17 7 0 10 -262144 -1 -1 1
1;
#X obj 867 84 f;
#X obj 867 108 sel 1;
#X msg 885 57 0;
#X obj 301 507 s autoTrigged;
#X obj 357 319 r autoTrigged;
#X obj 915 56 r autoTrigged;
#X msg 915 80 1;
#X text 918 110 don't save same twice;
#X msg 590 602 \$1 150;
#X obj 590 626 line~;
#X obj 573 650 *~;
#X obj 960 89 tgl 15 0 empty empty empty 17 7 0 10 -262144 -1 -1 0
1;
#X msg 318 326 0;
#X obj 332 475 / 100;
#X obj 1053 62 s readyToSave;
#X obj 1113 244 r wavStart;
#X obj 1130 163 r readyToSave;
#X obj 1130 187 sel 0 1, f 10;
#X obj 1113 279 i;
#X obj 1113 303 - 1;
#X obj 1113 327 sel 0;
#X msg 1130 214 -1;
#X obj 1113 351 s abort;
#X obj 1163 213 f 4;
#X floatatom 1070 350 5 0 0 0 - - -, f 5;
#X connect 0 0 1 0;
#X connect 1 0 2 0;
#X connect 4 0 7 0;
#X connect 4 0 15 0;
#X connect 6 0 9 1;
#X connect 7 0 8 0;
#X connect 7 0 6 0;
#X connect 8 0 9 0;
#X connect 9 0 10 0;
#X connect 9 0 79 0;
#X connect 11 0 12 0;
#X connect 12 0 97 0;
#X connect 13 0 14 0;
#X connect 14 0 12 1;
#X connect 15 0 20 0;
#X connect 16 0 17 0;
#X connect 17 0 16 1;
#X connect 17 0 21 1;
#X connect 18 0 19 0;
#X connect 19 0 18 1;
#X connect 19 0 21 0;
#X connect 20 0 42 0;
#X connect 20 1 16 0;
#X connect 21 0 24 1;
#X connect 22 0 16 1;
#X connect 22 0 19 0;
#X connect 23 0 22 0;
#X connect 23 1 24 0;
#X connect 23 1 75 0;
#X connect 24 0 28 0;
#X connect 24 0 25 0;
#X connect 26 0 10 0;
#X connect 26 0 30 0;
#X connect 26 0 77 0;
#X connect 26 1 27 0;
#X connect 26 1 109 0;
#X connect 28 0 34 0;
#X connect 29 0 32 0;
#X connect 29 0 103 0;
#X connect 31 0 32 0;
#X connect 31 0 103 1;
#X connect 31 0 118 0;
#X connect 32 0 37 0;
#X connect 33 0 31 0;
#X connect 34 0 26 0;
#X connect 35 0 38 0;
#X connect 37 0 40 1;
#X connect 38 0 36 0;
#X connect 38 0 36 1;
#X connect 39 0 41 0;
#X connect 39 1 35 0;
#X connect 40 0 39 0;
#X connect 41 0 35 0;
#X connect 42 0 18 0;
#X connect 42 0 46 0;
#X connect 43 0 42 1;
#X connect 44 0 119 0;
#X connect 46 0 47 0;
#X connect 47 0 48 0;
#X connect 47 1 50 0;
#X connect 47 1 51 0;
#X connect 48 0 49 0;
#X connect 49 0 52 0;
#X connect 50 0 48 0;
#X connect 51 0 52 0;
#X connect 52 0 53 0;
#X connect 53 0 54 0;
#X connect 53 1 55 0;
#X connect 54 0 45 0;
#X connect 55 0 45 0;
#X connect 56 0 58 0;
#X connect 57 0 31 0;
#X connect 57 0 108 0;
#X connect 58 0 31 0;
#X connect 58 1 106 0;
#X connect 59 0 61 0;
#X connect 59 1 61 1;
#X connect 59 2 61 2;
#X connect 60 0 61 3;
#X connect 60 1 61 4;
#X connect 60 2 61 5;
#X connect 61 0 64 0;
#X connect 62 0 59 0;
#X connect 62 1 60 0;
#X connect 63 0 62 0;
#X connect 64 0 65 0;
#X connect 65 0 67 0;
#X connect 66 0 65 1;
#X connect 67 0 82 0;
#X connect 68 0 67 1;
#X connect 69 0 72 1;
#X connect 70 0 71 1;
#X connect 71 0 73 0;
#X connect 72 0 71 0;
#X connect 73 0 81 1;
#X connect 75 0 78 0;
#X connect 75 0 116 0;
#X connect 78 0 80 1;
#X connect 79 0 80 0;
#X connect 80 0 77 0;
#X connect 81 0 83 0;
#X connect 81 0 84 0;
#X connect 81 0 89 0;
#X connect 82 0 81 0;
#X connect 82 1 72 0;
#X connect 83 0 74 0;
#X connect 84 0 74 0;
#X connect 85 0 87 0;
#X connect 86 0 88 0;
#X connect 87 0 86 1;
#X connect 89 0 90 0;
#X connect 90 0 86 0;
#X connect 91 0 89 0;
#X connect 92 0 93 0;
#X connect 93 0 94 0;
#X connect 93 0 95 0;
#X connect 94 0 93 1;
#X connect 96 0 93 1;
#X connect 97 0 40 0;
#X connect 97 1 23 0;
#X connect 97 2 98 0;
#X connect 99 0 101 0;
#X connect 100 0 102 0;
#X connect 101 0 114 0;
#X connect 102 0 114 0;
#X connect 103 0 28 1;
#X connect 103 0 105 0;
#X connect 104 0 103 0;
#X connect 106 0 107 0;
#X connect 107 0 108 0;
#X connect 107 0 62 0;
#X connect 108 0 106 1;
#X connect 108 0 117 0;
#X connect 110 0 29 0;
#X connect 111 0 112 0;
#X connect 112 0 106 1;
#X connect 112 0 117 0;
#X connect 114 0 115 0;
#X connect 115 0 116 1;
#X connect 116 0 36 0;
#X connect 116 0 36 1;
#X connect 117 0 120 0;
#X connect 118 0 19 0;
#X connect 119 0 34 1;
#X connect 121 0 124 0;
#X connect 122 0 123 0;
#X connect 123 0 127 0;
#X connect 123 1 129 0;
#X connect 124 0 125 0;
#X connect 125 0 124 1;
#X connect 125 0 126 0;
#X connect 125 0 130 0;
#X connect 126 0 128 0;
#X connect 127 0 124 1;
#X connect 129 0 124 1;
#X restore 20 101 pd AutoRec;
#X obj 32 220 r readyToSave;
#X obj 32 244 t f f;
#X obj 32 268 metro 150;
#X obj 32 312 tgl 40 0 empty empty empty 17 7 0 10 -262144 -1 -1 0
1;
#X msg 64 290 0;
#X connect 1 0 0 0;
#X connect 2 0 3 0;
#X connect 7 0 6 0;
#X connect 9 0 10 0;
#X connect 15 0 6 0;
#X connect 18 0 6 0;
#X connect 20 0 19 0;
#X connect 23 0 24 0;
#X connect 24 0 25 0;
#X connect 24 1 27 0;
#X connect 25 0 26 0;
#X connect 27 0 26 0;
