#N canvas 125 334 594 405 12;
#X declare -stdpath hcs;
#X declare -stdpath ggee;
#X declare -stdpath ggee -stdpath motex;
#X declare -stdpath moonlib;
#X declare -lib zexy;
#X declare -path Decoupeur;
#X declare -stdpath AutoPreset;
#X declare -lib iemlib1 -lib iemlib2;
#X obj 125 39 s getSloganDir;
#X obj 125 18 bng 15 250 50 0 empty empty empty 17 7 0 10 -262144 -1
-1;
#X obj 124 63 r sloganDir;
#X symbolatom 124 86 0 0 0 0 - - -;
#N canvas 372 152 809 713 Bank 1;
#X obj 34 34 r BANK;
#X obj 77 110 pack s s;
#X obj 130 85 r sloganDir;
#X obj 77 217 text define BANKconfig;
#X obj 243 70 s BANK;
#X obj 34 60 symbol;
#X msg 243 44 oui;
#X obj 287 48 s getSloganDir;
#X obj 287 27 bng 15 250 50 0 empty empty empty 17 7 0 10 -262144 -1
-1;
#X obj 34 83 t b b s;
#X obj 55 288 text search BANKconfig;
#X msg 55 265 symbol length;
#X obj 55 312 text get BANKconfig;
#X obj 55 335 route list;
#X obj 55 358 route length;
#X obj 32 449 text search BANKconfig;
#X obj 32 472 text get BANKconfig;
#X obj 32 495 route list;
#X msg 32 426 symbol partB;
#X obj 32 518 route partB;
#X obj 32 403 t b b;
#X msg 117 518 0;
#X obj 55 380 s BANKlength;
#X obj 32 541 s BANKpartB;
#X obj 275 130 declare -stdpath hcs;
#X obj 332 383 folder_list;
#X obj 77 156 t s s;
#X msg 77 184 read \$1/config.txt;
#X obj 46 571 r BANKpartB;
#X floatatom 46 594 5 0 0 0 - - -, f 5;
#X floatatom 152 381 5 0 0 0 - - -, f 5;
#X obj 152 358 r BANKlength;
#X msg 77 132 symbol \$2/\$1;
#X obj 309 356 t b s b;
#X obj 332 453 list;
#X obj 332 478 t a;
#X obj 309 507 list;
#X msg 408 444 list;
#X obj 309 531 s bankFilesList;
#X msg 309 332 symbol \$1/20*.wav;
#X obj 529 50 r createNewBank;
#X obj 529 106 unpack s f f;
#X obj 529 134 pack s f f, f 12;
#X obj 529 180 unpack s f f;
#X obj 529 74 t a b, f 21;
#X msg 624 106 8;
#X msg 658 107 0;
#X obj 610 208 sel 0;
#X obj 569 286 text insert BANKconfig 0;
#X msg 569 232 length \$1;
#X msg 642 231 partB \$1;
#X obj 219 183 r toBANKconfig;
#X msg 639 153 clear;
#X obj 639 181 s toBANKconfig;
#X obj 529 343 pack s s;
#X obj 582 318 r sloganDir;
#X msg 529 365 symbol \$2/\$1;
#X msg 561 510 write \$1/config.txt;
#X obj 530 591 s createNewBank;
#X msg 530 567 testBank;
#X obj 569 261 list;
#X obj 561 536 s toBANKconfig;
#X obj 529 440 shell;
#X obj 530 17 declare -stdpath ggee;
#X msg 529 414 mkdir -p \$1;
#X obj 529 389 t s s;
#X obj 561 486 symbol;
#X obj 561 463 b;
#X obj 153 557 text search BANKconfig;
#X obj 153 580 text get BANKconfig;
#X obj 153 603 route list;
#X obj 153 511 t b b;
#X obj 153 626 route sequence;
#X obj 153 676 s AMB-sequence;
#X obj 153 654 list prepend 0;
#X msg 153 534 symbol sequence;
#X msg 466 669 2 1 0.5 1 0.5;
#X msg 267 626 8 1 0.25 1 0.25 1 0.25 1 0.25 1 0.25 1 0.25 1 0.25 0
0;
#X connect 0 0 5 0;
#X connect 1 0 32 0;
#X connect 2 0 1 1;
#X connect 5 0 9 0;
#X connect 6 0 4 0;
#X connect 8 0 7 0;
#X connect 9 1 11 0;
#X connect 9 1 20 0;
#X connect 9 1 71 0;
#X connect 9 2 1 0;
#X connect 10 0 12 0;
#X connect 11 0 10 0;
#X connect 12 0 13 0;
#X connect 13 0 14 0;
#X connect 14 0 22 0;
#X connect 15 0 16 0;
#X connect 16 0 17 0;
#X connect 17 0 19 0;
#X connect 18 0 15 0;
#X connect 19 0 23 0;
#X connect 20 0 18 0;
#X connect 20 1 21 0;
#X connect 21 0 23 0;
#X connect 25 0 34 0;
#X connect 26 0 27 0;
#X connect 26 1 39 0;
#X connect 27 0 3 0;
#X connect 28 0 29 0;
#X connect 31 0 30 0;
#X connect 32 0 26 0;
#X connect 33 0 36 0;
#X connect 33 1 25 0;
#X connect 33 2 37 0;
#X connect 34 0 35 0;
#X connect 35 0 34 1;
#X connect 35 0 36 1;
#X connect 36 0 38 0;
#X connect 37 0 35 0;
#X connect 39 0 33 0;
#X connect 40 0 44 0;
#X connect 41 0 42 0;
#X connect 41 1 42 1;
#X connect 41 2 42 2;
#X connect 42 0 43 0;
#X connect 43 0 54 0;
#X connect 43 1 49 0;
#X connect 43 2 47 0;
#X connect 44 0 41 0;
#X connect 44 1 45 0;
#X connect 44 1 46 0;
#X connect 44 1 52 0;
#X connect 45 0 42 1;
#X connect 46 0 42 2;
#X connect 47 1 50 0;
#X connect 49 0 60 0;
#X connect 50 0 60 0;
#X connect 51 0 3 0;
#X connect 52 0 53 0;
#X connect 54 0 56 0;
#X connect 55 0 54 1;
#X connect 56 0 65 0;
#X connect 57 0 61 0;
#X connect 59 0 58 0;
#X connect 60 0 48 0;
#X connect 62 1 67 0;
#X connect 64 0 62 0;
#X connect 65 0 64 0;
#X connect 65 1 66 1;
#X connect 66 0 57 0;
#X connect 67 0 66 0;
#X connect 68 0 69 0;
#X connect 69 0 70 0;
#X connect 70 0 72 0;
#X connect 71 0 75 0;
#X connect 71 1 77 0;
#X connect 72 0 74 0;
#X connect 74 0 73 0;
#X connect 75 0 68 0;
#X connect 77 0 74 0;
#X restore 19 44 pd Bank;
#N canvas 196 402 490 203 sloganDir 0;
#X obj 111 56 loadbang;
#X obj 111 99 del 10;
#X obj 111 168 s sloganDir;
#X obj 120 77 r getSloganDir;
#X msg 111 145 symbol \$1/Datas/slogan;
#X obj 111 122 motex/getenv HOME;
#X obj 113 18 declare -stdpath ggee -stdpath motex;
#X connect 0 0 1 0;
#X connect 1 0 5 0;
#X connect 3 0 1 0;
#X connect 4 0 2 0;
#X connect 5 0 4 0;
#X restore 19 15 pd sloganDir;
#X obj 124 139 s BANK;
#X msg 124 114 oui;
#N canvas 140 254 361 571 CLOCK 0;
#X obj 47 19 declare -stdpath moonlib;
#X floatatom 46 164 5 0 0 0 - - -, f 5;
#X msg 81 92 0 600;
#X obj 250 3 loadbang;
#X obj 86 184 r BANKlength;
#X floatatom 46 229 5 0 0 0 - - -, f 5;
#X obj 46 307 sel 0;
#X obj 46 353 t b f;
#X obj 76 375 mtof;
#X obj 76 398 osc~;
#X obj 46 465 *~;
#X obj 46 488 *~ 0.1;
#X obj 46 518 dac~;
#X msg 46 330 65;
#X msg 77 330 77;
#X obj 166 419 r metronomeVolume;
#X obj 46 442 vline~;
#X msg 46 419 1 0.5 \, 0 150 1;
#X obj 139 307 s STEP;
#X obj 166 442 pow 3;
#X obj 46 206 fmod 8;
#X obj 46 120 ndmetro 64 2;
#X obj 46 143 / 2;
#X obj 46 251 i;
#X obj 46 274 change;
#X obj 168 121 unpack f f;
#X obj 235 148 s TEMPOms;
#X msg 46 93 -1;
#X obj 46 44 r CLOCKON;
#X obj 46 68 sel 0 1;
#X connect 1 0 20 0;
#X connect 2 0 21 0;
#X connect 2 0 25 0;
#X connect 4 0 20 1;
#X connect 5 0 18 0;
#X connect 5 0 23 0;
#X connect 6 0 13 0;
#X connect 6 1 14 0;
#X connect 7 0 17 0;
#X connect 7 1 8 0;
#X connect 8 0 9 0;
#X connect 9 0 10 1;
#X connect 10 0 11 0;
#X connect 11 0 12 0;
#X connect 11 0 12 1;
#X connect 13 0 7 0;
#X connect 14 0 7 0;
#X connect 15 0 19 0;
#X connect 16 0 10 0;
#X connect 17 0 16 0;
#X connect 19 0 11 1;
#X connect 20 0 5 0;
#X connect 21 0 22 0;
#X connect 22 0 1 0;
#X connect 23 0 24 0;
#X connect 24 0 6 0;
#X connect 25 1 26 0;
#X connect 27 0 21 0;
#X connect 28 0 29 0;
#X connect 29 0 27 0;
#X connect 29 1 2 0;
#X restore 22 179 pd CLOCK;
#X obj 324 42 loadbang;
#X msg 324 65 \; pd dsp 1;
#X obj 259 165 hsl 128 15 0 1 0 1 metronomeVolume metronomeVolume metronomeVolume
-2 -8 0 10 -262144 -1 -1 0 1;
#X obj 259 217 nbx 5 14 40 100 0 1 autoRecInputThreshold autoRecInputThreshold-rcv
autoRecInputThreshold 0 -8 0 10 -262144 -1 -1 73 256;
#X obj 260 276 nbx 5 14 0 100 0 1 autoRecOnRatio autoRecOnRatio-rcv
autoRecOnRatio 0 -8 0 10 -262144 -1 -1 25 256;
#N canvas 407 416 560 414 BankMix 0;
#X obj 330 93 r BANKlength;
#X obj 347 119 r TEMPOms;
#X obj 330 171 * 600, f 7;
#X obj 330 195 * 44.1;
#X obj 347 143 t b f;
#X msg 330 219 \; bankmixTab resize \$1;
#X msg 296 92 8;
#X obj 296 63 loadbang;
#X obj 91 85 table bankmixTab;
#X obj 117 129 r BANK;
#X obj 117 207 t b s, f 7;
#X obj 117 231 del 1;
#X obj 117 255 symbol, f 7;
#X obj 117 281 list prepend oui;
#X obj 226 255 r sloganDir;
#X obj 117 340 soundfiler;
#X obj 117 153 symbol;
#X msg 84 131 oui;
#X msg 117 308 read \$1/\$2/bankmix.wav bankmixTab;
#X obj 117 177 t s b;
#X msg 175 208 \; bankmixTab const 0;
#X connect 0 0 2 0;
#X connect 1 0 4 0;
#X connect 2 0 3 0;
#X connect 3 0 5 0;
#X connect 4 0 2 0;
#X connect 4 1 2 1;
#X connect 6 0 2 0;
#X connect 7 0 6 0;
#X connect 9 0 16 0;
#X connect 10 0 11 0;
#X connect 10 1 12 1;
#X connect 11 0 12 0;
#X connect 12 0 13 0;
#X connect 13 0 18 0;
#X connect 14 0 13 1;
#X connect 16 0 19 0;
#X connect 17 0 16 0;
#X connect 18 0 15 0;
#X connect 19 0 10 0;
#X connect 19 1 20 0;
#X restore 19 72 pd BankMix;
#X msg 157 114 non;
#X obj 200 226 bng 40 250 50 0 save save save 0 -8 0 14 -258113 -1
-1;
#X obj 142 225 bng 40 250 50 0 abort abort abort 0 -7 0 14 -4032 -1
-1;
#X msg 192 113 debitcredit;
#X obj 141 366 s createNewBank;
#X msg 141 342 testBank 8;
#N canvas 602 121 496 652 PlayOne 0;
#X obj 80 116 r bankFilesList;
#X obj 80 140 t a a, f 12;
#X obj 161 166 list length;
#X obj 55 250 list split;
#X obj 88 279 list split 1;
#X obj 55 173 list;
#X obj 106 169 random;
#X obj 55 85 t b b, f 10;
#X obj 55 58 bng 15 250 50 0 empty empty empty 17 7 0 10 -262144 -1
-1;
#X symbolatom 215 295 0 0 0 0 - - -;
#X obj 88 427 readsf~;
#X obj 278 184 r STEP;
#X obj 278 211 sel 0;
#X obj 310 237 sel;
#X obj 328 208 r BANKpartB;
#X obj 310 266 bng 15 250 50 0 empty empty empty 17 7 0 10 -262144
-1 -1;
#X msg 88 339 stop \, open \$1 \, 1;
#X obj 55 30 r wavStart;
#X obj 153 458 line~;
#X obj 88 491 *~;
#X obj 88 537 *~ 0.15;
#X obj 342 384 s playOne;
#X msg 203 428 0.5 200;
#X obj 234 496 r readyToSave;
#X msg 234 548 0.05;
#X msg 274 550 0.15;
#X obj 234 520 sel 1 0;
#X obj 122 225 urn;
#X floatatom 223 210 5 0 0 0 - - -, f 5;
#X obj 153 401 f 0;
#X msg 153 427 \$1 100;
#X floatatom 374 314 5 0 0 0 - - -, f 5;
#X obj 370 255 == 0;
#X obj 153 377 b;
#X obj 370 277 * 0.15;
#X obj 157 224 del 1;
#X obj 87 580 OUTvx;
#X connect 0 0 1 0;
#X connect 1 0 5 1;
#X connect 1 1 2 0;
#X connect 2 0 6 1;
#X connect 2 0 27 1;
#X connect 2 0 28 0;
#X connect 3 1 4 0;
#X connect 4 0 16 0;
#X connect 4 0 33 0;
#X connect 5 0 3 0;
#X connect 7 0 5 0;
#X connect 7 1 6 0;
#X connect 7 1 27 0;
#X connect 8 0 7 0;
#X connect 10 0 19 0;
#X connect 11 0 12 0;
#X connect 12 1 13 0;
#X connect 13 0 15 0;
#X connect 13 0 22 0;
#X connect 13 0 21 0;
#X connect 14 0 13 1;
#X connect 14 0 32 0;
#X connect 16 0 10 0;
#X connect 17 0 8 0;
#X connect 18 0 19 1;
#X connect 19 0 20 0;
#X connect 20 0 36 0;
#X connect 22 0 18 0;
#X connect 23 0 26 0;
#X connect 24 0 20 1;
#X connect 25 0 20 1;
#X connect 26 0 24 0;
#X connect 26 1 25 0;
#X connect 27 0 3 1;
#X connect 27 1 35 0;
#X connect 29 0 30 0;
#X connect 30 0 18 0;
#X connect 32 0 34 0;
#X connect 33 0 29 0;
#X connect 34 0 29 1;
#X connect 34 0 31 0;
#X connect 35 0 27 0;
#X restore 20 132 pd PlayOne;
#N canvas 91 81 1298 762 AutoRec 0;
#X msg 536 55 44100 30;
#X obj 536 78 *;
#X floatatom 536 101 0 0 0 0 - - -;
#X obj 97 32 table autorecTab 1e+06;
#X obj 98 93 adc~;
#X obj 534 133 declare -lib zexy;
#X obj 144 165 limiter~;
#X obj 99 164 z~ 64;
#X obj 99 187 *~;
#X obj 99 287 tabwrite~ autorecTab;
#X obj 352 75 r STEP;
#X obj 352 124 sel 7;
#X obj 403 75 r BANKlength;
#X obj 403 98 - 1;
#X obj 277 237 env~;
#X obj 472 289 i;
#X obj 472 312 + 1;
#X obj 277 329 +;
#X obj 277 352 i;
#X obj 277 260 t f b, f 30;
#X obj 277 375 /;
#X msg 375 213 0;
#X obj 375 187 t b b;
#X obj 261 400 f;
#X floatatom 298 400 5 0 0 0 - - -, f 5;
#X obj 261 474 sel 0 1;
#X obj 282 506 bng 15 250 50 0 empty empty empty 17 7 0 10 -262144
-1 -1;
#X obj 261 424 spigot 1;
#X msg 357 342 0;
#X obj 249 507 bng 15 250 50 0 empty empty empty 17 7 0 10 -262144
-1 -1;
#X msg 596 220 1;
#X obj 459 461 tgl 15 0 empty empty empty 17 7 0 10 -262144 -1 -1 1
1;
#X obj 596 194 loadbang;
#X obj 261 451 > 0.25;
#X obj 638 427 tabplay~ autorecTab;
#X obj 656 316 == 0;
#X obj 638 649 *~ 0.15;
#X obj 638 364 sel 0 1;
#X obj 638 341 f;
#X msg 638 393 stop;
#X obj 277 306 > 80;
#X obj 300 283 r autoRecInputThreshold;
#X obj 332 451 r autoRecOnRatio;
#X obj 35 572 s autoRecInputThreshold-rcv;
#X obj 35 354 change;
#X obj 35 380 sel 0 1;
#X obj 35 426 del 100;
#X msg 35 450 0;
#X msg 56 403 stop;
#X msg 65 451 1;
#X obj 35 475 change;
#X obj 35 501 sel 0 1;
#X msg 35 540 color 0 22 22;
#X msg 133 540 color 13 0 22;
#X obj 759 98 bng 40 250 50 0 empty save save 0 -8 0 14 -258113 -1
-1;
#X obj 699 102 bng 40 250 50 0 empty abort abort 0 -7 0 14 -4032 -1
-1;
#X obj 759 148 t b b;
#X obj 867 164 date, f 16;
#X obj 932 191 time, f 10;
#X obj 867 217 pack f f f f f f;
#X obj 867 135 t b b;
#X obj 832 158 bng 15 250 50 0 empty empty empty 17 7 0 10 -262144
-1 -1;
#X msg 867 250 symbol \$1_\$2_\$3-\$4h:\$5mn:\$6s;
#X obj 867 306 list prepend oui;
#X obj 976 280 r BANK;
#X obj 867 355 list prepend oui;
#X obj 976 329 r sloganDir;
#X obj 917 406 r BANKlength;
#X obj 945 433 r TEMPOms;
#X obj 899 459 * 600, f 7;
#X obj 899 433 f 8;
#X obj 899 483 * 44.1;
#X obj 867 626 soundfiler;
#X obj 377 577 tabplay~ bankmixTab;
#X obj 95 62 table bankmixTabTmp 1e+06;
#X obj 311 691 tabwrite~ bankmixTabTmp;
#X obj 377 628 *~ 0.9;
#X obj 311 630 *~ 0.1;
#X obj 311 657 +~;
#X obj 867 515 list append 0;
#X obj 867 404 t a b;
#X msg 867 552 write -wave -normalize -nframes \$4 \$1/\$2/\$3.wav
autorecTab;
#X msg 815 584 write -wave -nframes \$4 \$1/\$2/bankmix.wav bankmixTabTmp
;
#X obj 1099 642 r BANK;
#X obj 1032 693 symbol oui;
#X obj 1099 668 symbol;
#X obj 1032 717 s BANK;
#X obj 1032 643 b;
#X obj 1032 667 del 1;
#X obj 1007 646 bng 15 250 50 0 empty empty empty 17 7 0 10 -262144
-1 -1;
#X msg 109 634 0.1;
#X obj 109 658 +;
#X obj 155 658 * 0.9;
#X floatatom 109 682 5 0 0 0 - - -, f 5;
#X msg 148 634 0;
#X obj 352 152 t b b b;
#X obj 452 190 s wavStart;
#X obj 561 509 r wavStart;
#X obj 596 540 r playOne;
#X msg 596 570 0.1;
#X obj 357 400 f;
#X obj 369 373 r wavStart;
#X obj 356 427 tgl 15 0 empty empty empty 17 7 0 10 -262144 -1 -1 1
1;
#X obj 867 84 f;
#X obj 867 108 sel 1;
#X msg 885 57 0;
#X obj 301 507 s autoTrigged;
#X obj 357 319 r autoTrigged;
#X obj 915 56 r autoTrigged;
#X msg 915 80 1;
#X text 918 110 don't save same twice;
#X msg 590 602 \$1 150;
#X obj 590 626 line~;
#X obj 573 650 *~;
#X obj 960 89 tgl 15 0 empty empty empty 17 7 0 10 -262144 -1 -1 0
1;
#X msg 318 326 0;
#X obj 332 475 / 100;
#X obj 1053 62 s readyToSave;
#X obj 1113 244 r wavStart;
#X obj 1130 163 r readyToSave;
#X obj 1130 187 sel 0 1, f 10;
#X obj 1113 279 i;
#X obj 1113 303 - 1;
#X obj 1113 327 sel 0;
#X msg 1130 214 -1;
#X obj 1113 351 s abort;
#X obj 1163 213 f 4;
#X floatatom 1070 350 5 0 0 0 - - -, f 5;
#X obj 99 141 *~ 12;
#X msg 685 526 0.8;
#X msg 561 574 0.35;
#X obj 600 700 OUTvx;
#X connect 0 0 1 0;
#X connect 1 0 2 0;
#X connect 4 0 14 0;
#X connect 4 0 128 0;
#X connect 6 0 8 1;
#X connect 7 0 8 0;
#X connect 8 0 9 0;
#X connect 8 0 77 0;
#X connect 10 0 11 0;
#X connect 11 0 95 0;
#X connect 12 0 13 0;
#X connect 13 0 11 1;
#X connect 14 0 19 0;
#X connect 15 0 16 0;
#X connect 16 0 15 1;
#X connect 16 0 20 1;
#X connect 17 0 18 0;
#X connect 18 0 17 1;
#X connect 18 0 20 0;
#X connect 19 0 40 0;
#X connect 19 1 15 0;
#X connect 20 0 23 1;
#X connect 21 0 15 1;
#X connect 21 0 18 0;
#X connect 22 0 21 0;
#X connect 22 1 23 0;
#X connect 22 1 73 0;
#X connect 23 0 27 0;
#X connect 23 0 24 0;
#X connect 25 0 9 0;
#X connect 25 0 29 0;
#X connect 25 0 75 0;
#X connect 25 1 26 0;
#X connect 25 1 106 0;
#X connect 27 0 33 0;
#X connect 28 0 31 0;
#X connect 28 0 100 0;
#X connect 30 0 31 0;
#X connect 30 0 100 1;
#X connect 30 0 115 0;
#X connect 31 0 35 0;
#X connect 32 0 30 0;
#X connect 33 0 25 0;
#X connect 34 0 36 0;
#X connect 35 0 38 1;
#X connect 36 0 131 0;
#X connect 37 0 39 0;
#X connect 37 1 34 0;
#X connect 38 0 37 0;
#X connect 39 0 34 0;
#X connect 40 0 17 0;
#X connect 40 0 44 0;
#X connect 41 0 40 1;
#X connect 42 0 116 0;
#X connect 44 0 45 0;
#X connect 45 0 46 0;
#X connect 45 1 48 0;
#X connect 45 1 49 0;
#X connect 46 0 47 0;
#X connect 47 0 50 0;
#X connect 48 0 46 0;
#X connect 49 0 50 0;
#X connect 50 0 51 0;
#X connect 51 0 52 0;
#X connect 51 1 53 0;
#X connect 52 0 43 0;
#X connect 53 0 43 0;
#X connect 54 0 56 0;
#X connect 55 0 30 0;
#X connect 55 0 105 0;
#X connect 56 0 30 0;
#X connect 56 1 103 0;
#X connect 57 0 59 0;
#X connect 57 1 59 1;
#X connect 57 2 59 2;
#X connect 58 0 59 3;
#X connect 58 1 59 4;
#X connect 58 2 59 5;
#X connect 59 0 62 0;
#X connect 60 0 57 0;
#X connect 60 1 58 0;
#X connect 61 0 60 0;
#X connect 62 0 63 0;
#X connect 63 0 65 0;
#X connect 64 0 63 1;
#X connect 65 0 80 0;
#X connect 66 0 65 1;
#X connect 67 0 70 1;
#X connect 68 0 69 1;
#X connect 69 0 71 0;
#X connect 70 0 69 0;
#X connect 71 0 79 1;
#X connect 73 0 76 0;
#X connect 73 0 113 0;
#X connect 76 0 78 1;
#X connect 77 0 78 0;
#X connect 78 0 75 0;
#X connect 79 0 81 0;
#X connect 79 0 82 0;
#X connect 79 0 87 0;
#X connect 80 0 79 0;
#X connect 80 1 70 0;
#X connect 81 0 72 0;
#X connect 82 0 72 0;
#X connect 83 0 85 0;
#X connect 84 0 86 0;
#X connect 85 0 84 1;
#X connect 87 0 88 0;
#X connect 88 0 84 0;
#X connect 89 0 87 0;
#X connect 90 0 91 0;
#X connect 91 0 92 0;
#X connect 91 0 93 0;
#X connect 92 0 91 1;
#X connect 94 0 91 1;
#X connect 95 0 38 0;
#X connect 95 1 22 0;
#X connect 95 2 96 0;
#X connect 97 0 130 0;
#X connect 98 0 99 0;
#X connect 99 0 111 0;
#X connect 100 0 27 1;
#X connect 100 0 102 0;
#X connect 101 0 100 0;
#X connect 103 0 104 0;
#X connect 104 0 105 0;
#X connect 104 0 60 0;
#X connect 105 0 103 1;
#X connect 105 0 114 0;
#X connect 107 0 28 0;
#X connect 108 0 109 0;
#X connect 109 0 103 1;
#X connect 109 0 114 0;
#X connect 111 0 112 0;
#X connect 112 0 113 1;
#X connect 113 0 131 0;
#X connect 114 0 117 0;
#X connect 115 0 18 0;
#X connect 116 0 33 1;
#X connect 118 0 121 0;
#X connect 119 0 120 0;
#X connect 120 0 124 0;
#X connect 120 1 126 0;
#X connect 121 0 122 0;
#X connect 122 0 121 1;
#X connect 122 0 123 0;
#X connect 122 0 127 0;
#X connect 123 0 125 0;
#X connect 124 0 121 1;
#X connect 126 0 121 1;
#X connect 128 0 7 0;
#X connect 128 0 6 0;
#X connect 129 0 111 0;
#X connect 130 0 111 0;
#X restore 20 101 pd AutoRec;
#X obj 32 220 r readyToSave;
#X obj 32 244 t f f;
#X obj 32 268 metro 150;
#X obj 32 312 tgl 40 0 empty empty empty 17 7 0 10 -262144 -1 -1 0
1;
#X msg 64 290 0;
#X msg 187 157 __;
#N canvas 303 210 991 654 Ambiance 1;
#X obj 21 16 declare -path Decoupeur;
#X obj 194 17 declare -stdpath AutoPreset;
#X obj 446 162 decoupeur_ctl AMB atk;
#X obj 393 18 declare -lib iemlib1 -lib iemlib2;
#X obj 56 559 OUT;
#X floatatom 74 498 5 0 0 0 - - -, f 5;
#X obj 55 360 s AMB-metro;
#X obj 61 206 r STEP;
#X obj 61 230 t f f f;
#X obj 84 256 i;
#X obj 84 279 ==;
#X obj 61 309 spigot;
#X obj 59 416 s blong-1-proba;
#X obj 62 394 hsl 128 15 0 1 0 1 empty empty empty -2 -8 0 10 -262144
-1 -1 12200 1;
#X obj 61 333 b;
#X obj 683 301 playerBlong AMB blong-1 amb1;
#X obj 227 289 catch~ amb1-l;
#X obj 276 315 catch~ amb1-r;
#X obj 398 271 catch~ amb1-rev;
#X obj 44 62 sampledec blong-1 atk;
#X obj 43 85 sampledec blong-2 atk;
#X obj 43 107 sampledec blong-3 atk;
#X obj 43 130 sampledec blong-4 atk;
#X obj 42 153 sampledec blong-5 atk;
#X obj 42 175 sampledec blong-6 atk;
#X obj 200 65 sampledec blong-7 atk;
#X obj 199 88 sampledec blong-8 atk;
#X obj 199 110 sampledec blong-9 atk;
#X obj 199 133 sampledec blong-10 atk;
#X obj 198 156 sampledec blong-11 atk;
#X obj 250 470 OUT, f 8;
#X obj 120 284 sel 0;
#X obj 120 316 s amb1-change;
#X obj 399 320 delwrite~ \$0-dA 2000;
#X obj 308 352 delread~ \$0-dA 120;
#X obj 383 66 sampledec fanfare-1 atk;
#X obj 383 88 sampledec fanfare-2 atk;
#X obj 683 166 playerFanfare AMB fanfare-1 amb1;
#X obj 62 448 hsl 128 15 0 1 0 1 empty empty empty -2 -8 0 10 -262144
-1 -1 11900 1;
#X obj 59 470 s fanfare-1-proba;
#X obj 55 534 player fanfare-1;
#N canvas 734 139 618 498 sequence 0;
#X obj 63 103 r STEP;
#X obj 279 311 table AMB-sequence 100;
#X obj 302 258 s AMB-sequence;
#X obj 302 232 list prepend 0;
#X obj 116 102 tabread AMB-sequence;
#X msg 116 77 0;
#X obj 63 127 fmod, f 8;
#X obj 63 151 * 2;
#X obj 63 175 + 1;
#X obj 63 201 tabread AMB-sequence;
#X obj 63 225 t b f;
#X obj 63 273 random 1000;
#X obj 95 249 * 1000;
#X obj 63 298 moses;
#X obj 63 386 s AMB-metro;
#X obj 63 322 b;
#X floatatom 159 268 5 0 0 0 - - -, f 5;
#X msg 314 148 8 1 0 1 0 1 1 1 0 1 1 1 1 0 1 1 0;
#X floatatom 164 154 5 0 0 0 - - -, f 5;
#X msg 281 108 8 1 0 1 1 1 0 1 1 1 1 0 1 1 0 1 0;
#X msg 302 195 8 1 0 1 0 1 0 0 0.5 1 0 1 0 1 0 0 0;
#X obj 162 323 bng 50 250 50 0 empty empty empty 17 7 0 10 -262144
-1 -1;
#X obj 116 6 r AMB-sequence;
#X obj 116 30 b;
#X obj 116 54 del 1;
#X msg 265 66 8 1 0.2 1 0.9 1 0 0.9 1 0.8 1 0.15 1 1 0 1 0.15;
#X obj 25 322 f;
#X connect 0 0 6 0;
#X connect 0 0 18 0;
#X connect 3 0 2 0;
#X connect 4 0 6 1;
#X connect 5 0 4 0;
#X connect 6 0 7 0;
#X connect 7 0 8 0;
#X connect 8 0 9 0;
#X connect 9 0 10 0;
#X connect 9 0 26 0;
#X connect 10 0 11 0;
#X connect 10 1 12 0;
#X connect 10 1 16 0;
#X connect 11 0 13 0;
#X connect 12 0 13 1;
#X connect 13 0 15 0;
#X connect 17 0 3 0;
#X connect 19 0 3 0;
#X connect 20 0 3 0;
#X connect 21 0 15 0;
#X connect 22 0 23 0;
#X connect 23 0 24 0;
#X connect 24 0 5 0;
#X connect 25 0 3 0;
#X connect 26 0 14 0;
#X restore 256 540 pd sequence;
#X obj 889 63 bng 15 250 50 0 empty empty empty 17 7 0 10 -258113 -1
-1;
#X obj 642 68 bng 15 250 50 0 empty empty empty 17 7 0 10 -4034 -1
-1;
#X obj 663 63 apmaster AMB-SETTING;
#X obj 640 87 apmasterfile AMB-SETTING AMB.setting;
#X obj 683 320 playerBlong AMB blong-1 amb1;
#X obj 683 342 playerBlong AMB blong-1 amb1;
#X obj 683 361 playerBlong AMB blong-1 amb1;
#X obj 682 384 playerBlong AMB blong-1 amb1;
#X obj 682 403 playerBlong AMB blong-1 amb1;
#X obj 682 425 playerBlong AMB blong-1 amb1;
#X obj 682 444 playerBlong AMB blong-1 amb1;
#X obj 682 187 playerFanfare AMB fanfare-1 amb1;
#X obj 683 211 playerFanfare AMB fanfare-1 amb1;
#X obj 682 232 playerFanfare AMB fanfare-1 amb1;
#X obj 682 256 playerFanfare AMB fanfare-1 amb1;
#X obj 681 277 playerFanfare AMB fanfare-1 amb1;
#X obj 249 434 *~ 0.06;
#X obj 304 432 *~ 0.06;
#X obj 307 379 rev2~ 85 60 5000 40;
#X obj 398 295 lop~ 3000;
#X obj 466 353 delread~ \$0-dA 300;
#X obj 465 380 rev3~ 80 94 3000 70;
#X connect 5 0 40 0;
#X connect 7 0 8 0;
#X connect 8 0 11 0;
#X connect 8 1 9 0;
#X connect 8 2 10 1;
#X connect 9 0 10 0;
#X connect 10 0 11 1;
#X connect 11 0 14 0;
#X connect 11 0 31 0;
#X connect 13 0 12 0;
#X connect 16 0 58 0;
#X connect 17 0 59 0;
#X connect 18 0 61 0;
#X connect 31 0 32 0;
#X connect 34 0 60 0;
#X connect 38 0 39 0;
#X connect 40 0 4 0;
#X connect 40 1 4 1;
#X connect 42 0 45 1;
#X connect 43 0 45 0;
#X connect 58 0 30 0;
#X connect 59 0 30 1;
#X connect 60 0 58 0;
#X connect 60 1 59 0;
#X connect 61 0 33 0;
#X connect 62 0 63 0;
#X connect 63 0 58 0;
#X connect 63 1 59 0;
#X restore 21 157 pd Ambiance;
#N canvas 1 81 731 364 MASTER 0;
#X obj 60 95 catch~ MASTER-l;
#X obj 218 93 catch~ MASTER-r;
#X obj 60 153 *~ 1;
#X obj 103 188 limiter~;
#X obj 59 188 z~ 64;
#X obj 59 212 *~;
#X obj 218 150 *~ 1;
#X obj 261 185 limiter~;
#X obj 217 185 z~ 64;
#X obj 217 209 *~;
#X obj 59 236 dac~, f 23;
#X obj 401 43 catch~ MASTERvx;
#X obj 427 136 *~ 3;
#X obj 400 213 +~;
#X obj 395 244 OUT;
#X obj 427 112 hip~ 1500;
#X obj 522 134 hip~ 500;
#X obj 522 161 lop~ 5000;
#X obj 522 82 delwrite~ \$0-dMV 2000;
#X obj 522 111 delread~ \$0-dMV 200;
#X obj 362 135 hip~ 200;
#X obj 327 136 vsl 15 128 0 1 0 1 empty empty empty 0 -9 0 10 -262144
-1 -1 10200 1;
#X obj 327 272 pow 2;
#X obj 327 296 * 8;
#X floatatom 327 320 5 0 0 0 - - -, f 5;
#X obj 428 185 lop~ 5000;
#X obj 427 159 lop~ 6000;
#X obj 523 186 rev3~ 100 82 6000 60;
#X connect 0 0 2 0;
#X connect 1 0 6 0;
#X connect 2 0 3 0;
#X connect 2 0 4 0;
#X connect 3 0 5 1;
#X connect 4 0 5 0;
#X connect 5 0 10 0;
#X connect 6 0 7 0;
#X connect 6 0 8 0;
#X connect 7 0 9 1;
#X connect 8 0 9 0;
#X connect 9 0 10 1;
#X connect 11 0 15 0;
#X connect 11 0 18 0;
#X connect 11 0 20 0;
#X connect 12 0 26 0;
#X connect 13 0 14 0;
#X connect 13 0 14 1;
#X connect 15 0 12 0;
#X connect 16 0 17 0;
#X connect 17 0 27 0;
#X connect 19 0 16 0;
#X connect 20 0 13 0;
#X connect 21 0 22 0;
#X connect 22 0 23 0;
#X connect 23 0 6 1;
#X connect 23 0 2 1;
#X connect 23 0 24 0;
#X connect 25 0 13 1;
#X connect 26 0 25 0;
#X connect 27 0 13 1;
#X restore 283 346 pd MASTER;
#X obj 440 183 tgl 40 0 CLOCKON CLOCKON CLOCKON 0 -8 0 14 -4034 -1
-1 1 1;
#X obj 441 62 loadbang;
#X obj 440 104 t b b;
#X obj 421 61 bng 15 250 50 0 empty empty empty 17 7 0 10 -262144 -1
-1;
#X connect 1 0 0 0;
#X connect 2 0 3 0;
#X connect 7 0 6 0;
#X connect 9 0 10 0;
#X connect 15 0 6 0;
#X connect 18 0 6 0;
#X connect 20 0 19 0;
#X connect 23 0 24 0;
#X connect 24 0 25 0;
#X connect 24 1 27 0;
#X connect 25 0 26 0;
#X connect 27 0 26 0;
#X connect 28 0 6 0;
#X connect 32 0 33 0;
#X connect 33 0 31 0;
#X connect 33 1 18 0;
#X connect 34 0 33 0;
