#N canvas 423 206 594 405 12;
#X declare -stdpath hcs;
#X declare -stdpath ggee;
#X declare -stdpath ggee -stdpath motex;
#X declare -stdpath moonlib;
#X declare -lib zexy;
#X declare -path Decoupeur;
#X declare -stdpath AutoPreset;
#X declare -lib iemlib1 -lib iemlib2;
#X obj 147 31 s getSloganDir;
#X obj 147 10 bng 15 250 50 0 empty empty empty 17 7 0 10 -262144 -1
-1;
#X obj 146 55 r sloganDir;
#X symbolatom 146 78 0 0 0 0 - - -;
#N canvas 336 100 1082 713 Bank 0;
#X obj 34 34 r BANK;
#X obj 334 140 pack s s;
#X obj 387 115 r sloganDir;
#X obj 334 247 text define BANKconfig;
#X obj 559 70 s BANK;
#X obj 34 60 symbol;
#X msg 559 44 oui;
#X obj 603 48 s getSloganDir;
#X obj 603 27 bng 15 250 50 0 empty empty empty 17 7 0 10 -262144 -1
-1;
#X obj 34 83 t b b s, f 35;
#X obj 173 253 text search BANKconfig;
#X msg 173 230 symbol length;
#X obj 173 277 text get BANKconfig;
#X obj 173 300 route list;
#X obj 173 323 route length;
#X obj 32 449 text search BANKconfig;
#X obj 32 472 text get BANKconfig;
#X obj 32 495 route list;
#X msg 32 426 symbol partB;
#X obj 32 518 route partB;
#X obj 32 403 t b b;
#X msg 117 518 0;
#X obj 173 345 s BANKlength;
#X obj 32 541 s BANKpartB;
#X obj 121 17 declare -stdpath hcs;
#X obj 416 359 folder_list;
#X obj 334 186 t s s;
#X msg 334 214 read \$1/config.txt;
#X obj 46 571 r BANKpartB;
#X floatatom 46 594 5 0 0 0 - - -, f 5;
#X floatatom 270 346 5 0 0 0 - - -, f 5;
#X obj 270 323 r BANKlength;
#X obj 393 332 t b s b;
#X obj 416 429 list;
#X obj 416 454 t a;
#X obj 393 483 list;
#X msg 492 420 list;
#X obj 393 507 s bankFilesList;
#X msg 393 308 symbol \$1/20*.wav;
#X obj 815 51 r createNewBank;
#X obj 815 107 unpack s f f;
#X obj 815 135 pack s f f, f 12;
#X obj 815 181 unpack s f f;
#X obj 815 75 t a b, f 21;
#X msg 910 107 8;
#X msg 944 108 0;
#X obj 896 209 sel 0;
#X obj 855 287 text insert BANKconfig 0;
#X msg 855 233 length \$1;
#X msg 928 232 partB \$1;
#X obj 476 213 r toBANKconfig;
#X msg 925 154 clear;
#X obj 925 182 s toBANKconfig;
#X obj 815 344 pack s s;
#X obj 868 319 r sloganDir;
#X msg 815 366 symbol \$2/\$1;
#X msg 847 511 write \$1/config.txt;
#X obj 816 592 s createNewBank;
#X msg 816 568 testBank;
#X obj 855 262 list;
#X obj 847 537 s toBANKconfig;
#X obj 815 441 shell;
#X obj 270 17 declare -stdpath ggee;
#X msg 815 415 mkdir -p \$1;
#X obj 815 390 t s s;
#X obj 847 487 symbol;
#X obj 847 464 b;
#X obj 153 557 text search BANKconfig;
#X obj 153 580 text get BANKconfig;
#X obj 153 603 route list;
#X obj 153 511 t b b;
#X obj 153 626 route sequence;
#X obj 153 676 s AMB-sequence;
#X obj 153 654 list prepend 0;
#X msg 153 534 symbol sequence;
#X msg 466 669 2 1 0.5 1 0.5;
#X msg 267 626 8 1 0.25 1 0.25 1 0.25 1 0.25 1 0.25 1 0.25 1 0.25 0
0;
#X msg 334 162 symbol \$2/banks/\$1;
#X obj 34 167 text search BANKconfig;
#X obj 34 191 text get BANKconfig;
#X obj 34 214 route list;
#X floatatom 74 334 5 0 0 0 - - -, f 5;
#X msg 34 145 symbol end;
#X obj 34 237 route end;
#X obj 34 259 s BANKend;
#X connect 0 0 5 0;
#X connect 1 0 77 0;
#X connect 2 0 1 1;
#X connect 5 0 9 0;
#X connect 6 0 4 0;
#X connect 8 0 7 0;
#X connect 9 0 82 0;
#X connect 9 1 11 0;
#X connect 9 1 20 0;
#X connect 9 1 70 0;
#X connect 9 2 1 0;
#X connect 10 0 12 0;
#X connect 11 0 10 0;
#X connect 12 0 13 0;
#X connect 13 0 14 0;
#X connect 14 0 22 0;
#X connect 15 0 16 0;
#X connect 16 0 17 0;
#X connect 17 0 19 0;
#X connect 18 0 15 0;
#X connect 19 0 23 0;
#X connect 20 0 18 0;
#X connect 20 1 21 0;
#X connect 21 0 23 0;
#X connect 25 0 33 0;
#X connect 26 0 27 0;
#X connect 26 1 38 0;
#X connect 27 0 3 0;
#X connect 28 0 29 0;
#X connect 31 0 30 0;
#X connect 32 0 35 0;
#X connect 32 1 25 0;
#X connect 32 2 36 0;
#X connect 33 0 34 0;
#X connect 34 0 33 1;
#X connect 34 0 35 1;
#X connect 35 0 37 0;
#X connect 36 0 34 0;
#X connect 38 0 32 0;
#X connect 39 0 43 0;
#X connect 40 0 41 0;
#X connect 40 1 41 1;
#X connect 40 2 41 2;
#X connect 41 0 42 0;
#X connect 42 0 53 0;
#X connect 42 1 48 0;
#X connect 42 2 46 0;
#X connect 43 0 40 0;
#X connect 43 1 44 0;
#X connect 43 1 45 0;
#X connect 43 1 51 0;
#X connect 44 0 41 1;
#X connect 45 0 41 2;
#X connect 46 1 49 0;
#X connect 48 0 59 0;
#X connect 49 0 59 0;
#X connect 50 0 3 0;
#X connect 51 0 52 0;
#X connect 53 0 55 0;
#X connect 54 0 53 1;
#X connect 55 0 64 0;
#X connect 56 0 60 0;
#X connect 58 0 57 0;
#X connect 59 0 47 0;
#X connect 61 1 66 0;
#X connect 63 0 61 0;
#X connect 64 0 63 0;
#X connect 64 1 65 1;
#X connect 65 0 56 0;
#X connect 66 0 65 0;
#X connect 67 0 68 0;
#X connect 68 0 69 0;
#X connect 69 0 71 0;
#X connect 70 0 74 0;
#X connect 70 1 76 0;
#X connect 71 0 73 0;
#X connect 73 0 72 0;
#X connect 74 0 67 0;
#X connect 76 0 73 0;
#X connect 77 0 26 0;
#X connect 78 0 79 0;
#X connect 79 0 80 0;
#X connect 80 0 83 0;
#X connect 82 0 78 0;
#X connect 83 0 84 0;
#X connect 83 0 81 0;
#X restore 17 72 pd Bank;
#N canvas 196 402 490 203 sloganDir 0;
#X obj 111 56 loadbang;
#X obj 111 99 del 10;
#X obj 111 168 s sloganDir;
#X obj 120 77 r getSloganDir;
#X msg 111 145 symbol \$1/Datas/slogan;
#X obj 111 122 motex/getenv HOME;
#X obj 113 18 declare -stdpath ggee -stdpath motex;
#X connect 0 0 1 0;
#X connect 1 0 5 0;
#X connect 3 0 1 0;
#X connect 4 0 2 0;
#X connect 5 0 4 0;
#X restore 19 15 pd sloganDir;
#X obj 146 131 s BANK;
#X msg 146 106 oui;
#N canvas 140 254 361 571 CLOCK 0;
#X obj 47 19 declare -stdpath moonlib;
#X floatatom 46 164 5 0 0 0 - - -, f 5;
#X msg 81 92 0 600;
#X obj 250 3 loadbang;
#X obj 86 184 r BANKlength;
#X floatatom 46 229 5 0 0 0 - - -, f 5;
#X obj 46 307 sel 0;
#X obj 46 353 t b f;
#X obj 76 375 mtof;
#X obj 76 398 osc~;
#X obj 46 465 *~;
#X obj 46 488 *~ 0.1;
#X obj 46 518 dac~;
#X msg 46 330 65;
#X msg 77 330 77;
#X obj 166 419 r metronomeVolume;
#X obj 46 442 vline~;
#X msg 46 419 1 0.5 \, 0 150 1;
#X obj 139 307 s STEP;
#X obj 166 442 pow 3;
#X obj 46 206 fmod 8;
#X obj 46 120 ndmetro 64 2;
#X obj 46 143 / 2;
#X obj 46 251 i;
#X obj 46 274 change;
#X obj 168 121 unpack f f;
#X obj 235 148 s TEMPOms;
#X msg 46 93 -1;
#X obj 46 44 r CLOCKON;
#X obj 46 68 sel 0 1;
#X connect 1 0 20 0;
#X connect 2 0 21 0;
#X connect 2 0 25 0;
#X connect 4 0 20 1;
#X connect 5 0 18 0;
#X connect 5 0 23 0;
#X connect 6 0 13 0;
#X connect 6 1 14 0;
#X connect 7 0 17 0;
#X connect 7 1 8 0;
#X connect 8 0 9 0;
#X connect 9 0 10 1;
#X connect 10 0 11 0;
#X connect 11 0 12 0;
#X connect 11 0 12 1;
#X connect 13 0 7 0;
#X connect 14 0 7 0;
#X connect 15 0 19 0;
#X connect 16 0 10 0;
#X connect 17 0 16 0;
#X connect 19 0 11 1;
#X connect 20 0 5 0;
#X connect 21 0 22 0;
#X connect 22 0 1 0;
#X connect 23 0 24 0;
#X connect 24 0 6 0;
#X connect 25 1 26 0;
#X connect 27 0 21 0;
#X connect 28 0 29 0;
#X connect 29 0 27 0;
#X connect 29 1 2 0;
#X restore 20 207 pd CLOCK;
#X obj 324 42 loadbang;
#X msg 324 65 \; pd dsp 1;
#X obj 259 165 hsl 128 15 0 1 0 1 metronomeVolume metronomeVolume metronomeVolume
-2 -8 0 10 -262144 -1 -1 0 1;
#X obj 259 217 nbx 5 14 40 100 0 1 autoRecInputThreshold autoRecInputThreshold-rcv
autoRecInputThreshold 0 -8 0 10 -262144 -1 -1 73 256;
#X obj 260 276 nbx 5 14 0 100 0 1 autoRecOnRatio autoRecOnRatio-rcv
autoRecOnRatio 0 -8 0 10 -262144 -1 -1 25 256;
#N canvas 407 416 560 414 BankMix 0;
#X obj 330 93 r BANKlength;
#X obj 347 119 r TEMPOms;
#X obj 330 171 * 600, f 7;
#X obj 330 195 * 44.1;
#X obj 347 143 t b f;
#X msg 330 219 \; bankmixTab resize \$1;
#X msg 296 92 8;
#X obj 296 63 loadbang;
#X obj 91 85 table bankmixTab;
#X obj 117 129 r BANK;
#X obj 117 207 t b s, f 7;
#X obj 117 231 del 1;
#X obj 117 255 symbol, f 7;
#X obj 117 281 list prepend oui;
#X obj 226 255 r sloganDir;
#X obj 117 340 soundfiler;
#X obj 117 153 symbol;
#X msg 84 131 oui;
#X obj 117 177 t s b;
#X msg 175 208 \; bankmixTab const 0;
#X msg 117 308 read \$1/banks/\$2/bankmix.wav bankmixTab;
#X connect 0 0 2 0;
#X connect 1 0 4 0;
#X connect 2 0 3 0;
#X connect 3 0 5 0;
#X connect 4 0 2 0;
#X connect 4 1 2 1;
#X connect 6 0 2 0;
#X connect 7 0 6 0;
#X connect 9 0 16 0;
#X connect 10 0 11 0;
#X connect 10 1 12 1;
#X connect 11 0 12 0;
#X connect 12 0 13 0;
#X connect 13 0 20 0;
#X connect 14 0 13 1;
#X connect 16 0 18 0;
#X connect 17 0 16 0;
#X connect 18 0 10 0;
#X connect 18 1 19 0;
#X connect 20 0 15 0;
#X restore 17 100 pd BankMix;
#X msg 179 106 non;
#X obj 198 283 bng 40 250 50 0 save save save 0 -8 0 14 -258113 -1
-1;
#X obj 140 282 bng 40 250 50 0 abort abort abort 0 -7 0 14 -4032 -1
-1;
#X msg 214 105 debitcredit;
#X obj 141 366 s createNewBank;
#X msg 141 342 testBank 8;
#N canvas 769 103 583 652 PlayOne 0;
#X obj 57 94 r bankFilesList;
#X obj 57 118 t a a, f 12;
#X obj 138 144 list length;
#X obj 32 270 list split;
#X obj 65 299 list split 1;
#X obj 32 151 list;
#X obj 32 70 t b b, f 10;
#X obj 32 48 bng 15 250 50 0 empty empty empty 17 7 0 10 -262144 -1
-1;
#X symbolatom 192 315 0 0 0 0 - - -;
#X obj 65 447 readsf~;
#X msg 65 359 stop \, open \$1 \, 1;
#X obj 32 24 r wavStart;
#X obj 130 478 line~;
#X obj 65 511 *~;
#X obj 65 557 *~ 0.15;
#X obj 211 516 r readyToSave;
#X msg 211 568 0.05;
#X obj 211 540 sel 1 0;
#X obj 99 210 urn;
#X floatatom 158 171 5 0 0 0 - - -, f 5;
#X msg 130 447 \$1 100;
#X obj 130 397 b;
#X obj 134 209 del 1;
#X obj 64 600 OUTvx;
#X msg 180 448 0.7 200;
#X floatatom 147 274 5 0 0 0 - - -, f 5;
#X obj 130 421 f 0.25;
#X floatatom 243 361 5 0 0 0 - - -, f 5;
#X obj 331 349 r BANKlength;
#X obj 331 377 - 1.5;
#X obj 250 394 r STEP;
#X obj 250 418 sel 0;
#X obj 322 447 bng 15 250 50 0 empty empty empty 17 7 0 10 -262144
-1 -1;
#X msg 59 246 0;
#X obj 38 333 bng 15 250 50 0 empty empty empty 17 7 0 10 -262144 -1
-1;
#X obj 250 452 del 250;
#X msg 250 479 0 50;
#X obj 368 447 r TEMPOms;
#X obj 368 471 / 2;
#X floatatom 368 519 5 0 0 0 - - -, f 5;
#X obj 368 495 - 60;
#X msg 424 484 600;
#X obj 248 280 r stepIsPartB;
#X obj 248 304 sel 0 1;
#X obj 100 419 bng 15 250 50 0 empty empty empty 17 7 0 10 -262144
-1 -1;
#X obj 370 394 r BANKend;
#X obj 370 418 - 0.5;
#X obj 331 505 bng 15 250 50 0 empty empty empty 17 7 0 10 -262144
-1 -1;
#X obj 99 148 f 0;
#X obj 99 172 sel 0 1;
#X obj 297 98 tgl 15 0 empty empty empty 17 7 0 10 -262144 -1 -1 0
1;
#X obj 208 20 r BANK;
#X msg 208 44 0;
#X obj 297 21 r nextItem;
#X obj 387 20 r prevItem;
#X obj 297 45 t b b;
#X obj 387 44 t b b;
#X msg 297 70 1;
#X msg 387 67 1;
#X obj 261 188 +;
#X obj 99 242 f;
#X msg 251 570 0.2;
#X obj 261 212 clip 0 10;
#X msg 261 159 -1;
#X msg 299 159 1;
#X obj 321 189 - 1;
#X obj 189 265 s currentItem;
#X connect 0 0 1 0;
#X connect 1 0 5 1;
#X connect 1 1 2 0;
#X connect 2 0 18 1;
#X connect 2 0 19 0;
#X connect 2 0 65 0;
#X connect 3 1 4 0;
#X connect 3 1 34 0;
#X connect 4 0 10 0;
#X connect 4 0 21 0;
#X connect 5 0 3 0;
#X connect 6 0 5 0;
#X connect 6 1 48 0;
#X connect 7 0 6 0;
#X connect 9 0 13 0;
#X connect 10 0 9 0;
#X connect 11 0 7 0;
#X connect 12 0 13 1;
#X connect 13 0 14 0;
#X connect 14 0 23 0;
#X connect 15 0 17 0;
#X connect 16 0 14 1;
#X connect 17 0 16 0;
#X connect 17 1 61 0;
#X connect 18 0 60 0;
#X connect 18 1 22 0;
#X connect 20 0 12 0;
#X connect 21 0 26 0;
#X connect 22 0 18 0;
#X connect 24 0 12 0;
#X connect 26 0 20 0;
#X connect 28 0 29 0;
#X connect 29 0 31 1;
#X connect 30 0 31 0;
#X connect 31 0 32 0;
#X connect 31 0 35 0;
#X connect 33 0 3 1;
#X connect 35 0 36 0;
#X connect 35 0 47 0;
#X connect 36 0 12 0;
#X connect 37 0 38 0;
#X connect 38 0 40 0;
#X connect 39 0 35 1;
#X connect 40 0 39 0;
#X connect 41 0 38 0;
#X connect 42 0 43 0;
#X connect 43 0 21 0;
#X connect 43 1 24 0;
#X connect 45 0 46 0;
#X connect 45 0 31 1;
#X connect 48 0 49 0;
#X connect 49 0 18 0;
#X connect 50 0 48 1;
#X connect 51 0 52 0;
#X connect 52 0 50 0;
#X connect 53 0 55 0;
#X connect 54 0 56 0;
#X connect 55 0 57 0;
#X connect 55 1 63 0;
#X connect 56 0 58 0;
#X connect 56 1 64 0;
#X connect 57 0 50 0;
#X connect 58 0 50 0;
#X connect 59 0 62 0;
#X connect 60 0 3 1;
#X connect 60 0 59 1;
#X connect 60 0 25 0;
#X connect 60 0 66 0;
#X connect 61 0 14 1;
#X connect 62 0 60 0;
#X connect 63 0 59 0;
#X connect 64 0 59 0;
#X connect 65 0 62 2;
#X restore 18 160 pd PlayOne;
#N canvas 137 86 1302 762 AutoRec 0;
#X msg 536 55 44100 30;
#X obj 536 78 *;
#X floatatom 536 101 0 0 0 0 - - -;
#X obj 97 32 table autorecTab 1e+06;
#X obj 98 93 adc~;
#X obj 534 133 declare -lib zexy;
#X obj 144 165 limiter~;
#X obj 99 164 z~ 64;
#X obj 99 187 *~;
#X obj 99 287 tabwrite~ autorecTab;
#X obj 352 75 r STEP;
#X obj 352 124 sel 7;
#X obj 403 75 r BANKlength;
#X obj 403 98 - 1;
#X obj 277 237 env~;
#X obj 472 289 i;
#X obj 472 312 + 1;
#X obj 277 329 +;
#X obj 277 352 i;
#X obj 277 260 t f b, f 30;
#X obj 277 375 /;
#X msg 375 213 0;
#X obj 375 187 t b b;
#X obj 261 400 f;
#X floatatom 298 400 5 0 0 0 - - -, f 5;
#X obj 261 474 sel 0 1;
#X obj 282 506 bng 15 250 50 0 empty empty empty 17 7 0 10 -262144
-1 -1;
#X obj 261 424 spigot 1;
#X msg 357 342 0;
#X obj 249 507 bng 15 250 50 0 empty empty empty 17 7 0 10 -262144
-1 -1;
#X msg 596 220 1;
#X obj 459 461 tgl 15 0 empty empty empty 17 7 0 10 -262144 -1 -1 1
1;
#X obj 596 194 loadbang;
#X obj 261 451 > 0.25;
#X obj 638 427 tabplay~ autorecTab;
#X obj 656 316 == 0;
#X obj 638 649 *~ 0.15;
#X obj 638 364 sel 0 1;
#X obj 638 341 f;
#X msg 638 393 stop;
#X obj 277 306 > 80;
#X obj 300 283 r autoRecInputThreshold;
#X obj 332 451 r autoRecOnRatio;
#X obj 35 572 s autoRecInputThreshold-rcv;
#X obj 35 354 change;
#X obj 35 380 sel 0 1;
#X obj 35 426 del 100;
#X msg 35 450 0;
#X msg 56 403 stop;
#X msg 65 451 1;
#X obj 35 475 change;
#X obj 35 501 sel 0 1;
#X msg 35 540 color 0 22 22;
#X msg 133 540 color 13 0 22;
#X obj 759 98 bng 40 250 50 0 empty save save 0 -8 0 14 -258113 -1
-1;
#X obj 699 102 bng 40 250 50 0 empty abort abort 0 -7 0 14 -4032 -1
-1;
#X obj 759 148 t b b;
#X obj 867 164 date, f 16;
#X obj 932 191 time, f 10;
#X obj 867 217 pack f f f f f f;
#X obj 867 135 t b b;
#X obj 832 158 bng 15 250 50 0 empty empty empty 17 7 0 10 -262144
-1 -1;
#X msg 867 250 symbol \$1_\$2_\$3-\$4h:\$5mn:\$6s;
#X obj 867 306 list prepend oui;
#X obj 976 280 r BANK;
#X obj 867 355 list prepend oui;
#X obj 976 329 r sloganDir;
#X obj 917 406 r BANKlength;
#X obj 945 433 r TEMPOms;
#X obj 899 459 * 600, f 7;
#X obj 899 433 f 8;
#X obj 899 483 * 44.1;
#X obj 867 626 soundfiler;
#X obj 377 577 tabplay~ bankmixTab;
#X obj 95 62 table bankmixTabTmp 1e+06;
#X obj 311 691 tabwrite~ bankmixTabTmp;
#X obj 311 657 +~;
#X obj 867 515 list append 0;
#X obj 867 404 t a b;
#X obj 1099 642 r BANK;
#X obj 1032 693 symbol oui;
#X obj 1099 668 symbol;
#X obj 1032 717 s BANK;
#X obj 1032 643 b;
#X obj 1032 667 del 1;
#X obj 1007 646 bng 15 250 50 0 empty empty empty 17 7 0 10 -262144
-1 -1;
#X msg 109 634 0.1;
#X obj 109 658 +;
#X obj 155 658 * 0.9;
#X floatatom 109 682 5 0 0 0 - - -, f 5;
#X msg 148 634 0;
#X obj 352 152 t b b b;
#X obj 452 190 s wavStart;
#X obj 561 509 r wavStart;
#X obj 596 540 r playOne;
#X obj 357 400 f;
#X obj 369 373 r wavStart;
#X obj 356 427 tgl 15 0 empty empty empty 17 7 0 10 -262144 -1 -1 1
1;
#X obj 867 84 f;
#X obj 867 108 sel 1;
#X msg 885 57 0;
#X obj 301 507 s autoTrigged;
#X obj 357 319 r autoTrigged;
#X obj 915 56 r autoTrigged;
#X msg 915 80 1;
#X text 918 110 don't save same twice;
#X msg 590 602 \$1 150;
#X obj 590 626 line~;
#X obj 573 650 *~;
#X obj 960 89 tgl 15 0 empty empty empty 17 7 0 10 -262144 -1 -1 0
1;
#X msg 318 326 0;
#X obj 332 475 / 100;
#X obj 1053 62 s readyToSave;
#X obj 1113 244 r wavStart;
#X obj 1130 163 r readyToSave;
#X obj 1130 187 sel 0 1, f 10;
#X obj 1113 279 i;
#X obj 1113 303 - 1;
#X obj 1113 327 sel 0;
#X msg 1130 214 -1;
#X obj 1113 351 s abort;
#X obj 1163 213 f 4;
#X floatatom 1070 350 5 0 0 0 - - -, f 5;
#X obj 99 141 *~ 12;
#X msg 685 526 0.8;
#X msg 561 574 0.35;
#X obj 600 700 OUTvx;
#X obj 311 630 *~ 0.05;
#X obj 377 628 *~ 0.95;
#X msg 867 547 write -wave -normalize -nframes \$4 \$1/banks/\$2/\$3.wav
autorecTab;
#X msg 829 583 write -wave -nframes \$4 \$1/banks/\$2/bankmix.wav bankmixTabTmp
;
#X obj 659 474 r stepIsPartB;
#X obj 659 498 sel 0 1;
#X msg 596 570 0.2;
#X floatatom 717 588 5 0 0 0 - - -, f 5;
#X obj 434 97 r BANKend;
#X obj 286 169 bng 15 250 50 0 empty empty empty 17 7 0 10 -262144
-1 -1;
#X obj 118 468 s micDetect;
#X connect 0 0 1 0;
#X connect 1 0 2 0;
#X connect 4 0 14 0;
#X connect 4 0 123 0;
#X connect 6 0 8 1;
#X connect 7 0 8 0;
#X connect 8 0 9 0;
#X connect 8 0 127 0;
#X connect 10 0 11 0;
#X connect 11 0 91 0;
#X connect 11 0 136 0;
#X connect 12 0 13 0;
#X connect 13 0 11 1;
#X connect 14 0 19 0;
#X connect 15 0 16 0;
#X connect 16 0 15 1;
#X connect 16 0 20 1;
#X connect 17 0 18 0;
#X connect 18 0 17 1;
#X connect 18 0 20 0;
#X connect 19 0 40 0;
#X connect 19 1 15 0;
#X connect 20 0 23 1;
#X connect 21 0 15 1;
#X connect 21 0 18 0;
#X connect 22 0 21 0;
#X connect 22 1 23 0;
#X connect 22 1 73 0;
#X connect 23 0 27 0;
#X connect 23 0 24 0;
#X connect 25 0 9 0;
#X connect 25 0 29 0;
#X connect 25 0 75 0;
#X connect 25 1 26 0;
#X connect 25 1 101 0;
#X connect 27 0 33 0;
#X connect 28 0 31 0;
#X connect 28 0 95 0;
#X connect 30 0 31 0;
#X connect 30 0 95 1;
#X connect 30 0 110 0;
#X connect 31 0 35 0;
#X connect 32 0 30 0;
#X connect 33 0 25 0;
#X connect 34 0 36 0;
#X connect 35 0 38 1;
#X connect 36 0 126 0;
#X connect 37 0 39 0;
#X connect 37 1 34 0;
#X connect 38 0 37 0;
#X connect 39 0 34 0;
#X connect 40 0 17 0;
#X connect 40 0 44 0;
#X connect 41 0 40 1;
#X connect 42 0 111 0;
#X connect 44 0 45 0;
#X connect 45 0 46 0;
#X connect 45 1 48 0;
#X connect 45 1 49 0;
#X connect 46 0 47 0;
#X connect 47 0 50 0;
#X connect 48 0 46 0;
#X connect 49 0 50 0;
#X connect 50 0 51 0;
#X connect 50 0 137 0;
#X connect 51 0 52 0;
#X connect 51 1 53 0;
#X connect 52 0 43 0;
#X connect 53 0 43 0;
#X connect 54 0 56 0;
#X connect 55 0 30 0;
#X connect 55 0 100 0;
#X connect 56 0 30 0;
#X connect 56 1 98 0;
#X connect 57 0 59 0;
#X connect 57 1 59 1;
#X connect 57 2 59 2;
#X connect 58 0 59 3;
#X connect 58 1 59 4;
#X connect 58 2 59 5;
#X connect 59 0 62 0;
#X connect 60 0 57 0;
#X connect 60 1 58 0;
#X connect 61 0 60 0;
#X connect 62 0 63 0;
#X connect 63 0 65 0;
#X connect 64 0 63 1;
#X connect 65 0 78 0;
#X connect 66 0 65 1;
#X connect 67 0 70 1;
#X connect 68 0 69 1;
#X connect 69 0 71 0;
#X connect 70 0 69 0;
#X connect 71 0 77 1;
#X connect 73 0 108 0;
#X connect 73 0 128 0;
#X connect 76 0 75 0;
#X connect 77 0 129 0;
#X connect 77 0 130 0;
#X connect 77 0 83 0;
#X connect 78 0 77 0;
#X connect 78 1 70 0;
#X connect 79 0 81 0;
#X connect 80 0 82 0;
#X connect 81 0 80 1;
#X connect 83 0 84 0;
#X connect 84 0 80 0;
#X connect 85 0 83 0;
#X connect 86 0 87 0;
#X connect 87 0 88 0;
#X connect 87 0 89 0;
#X connect 88 0 87 1;
#X connect 90 0 87 1;
#X connect 91 0 38 0;
#X connect 91 1 22 0;
#X connect 91 2 92 0;
#X connect 93 0 125 0;
#X connect 95 0 27 1;
#X connect 95 0 97 0;
#X connect 96 0 95 0;
#X connect 98 0 99 0;
#X connect 99 0 100 0;
#X connect 99 0 60 0;
#X connect 100 0 98 1;
#X connect 100 0 109 0;
#X connect 102 0 28 0;
#X connect 103 0 104 0;
#X connect 104 0 98 1;
#X connect 104 0 109 0;
#X connect 106 0 107 0;
#X connect 107 0 108 1;
#X connect 108 0 126 0;
#X connect 109 0 112 0;
#X connect 110 0 18 0;
#X connect 111 0 33 1;
#X connect 113 0 116 0;
#X connect 114 0 115 0;
#X connect 115 0 119 0;
#X connect 115 1 121 0;
#X connect 116 0 117 0;
#X connect 117 0 116 1;
#X connect 117 0 118 0;
#X connect 117 0 122 0;
#X connect 118 0 120 0;
#X connect 119 0 116 1;
#X connect 121 0 116 1;
#X connect 123 0 7 0;
#X connect 123 0 6 0;
#X connect 124 0 106 0;
#X connect 125 0 106 0;
#X connect 125 0 134 0;
#X connect 127 0 76 0;
#X connect 128 0 76 1;
#X connect 129 0 72 0;
#X connect 130 0 72 0;
#X connect 131 0 132 0;
#X connect 132 0 125 0;
#X connect 132 1 133 0;
#X connect 133 0 106 0;
#X connect 133 0 134 0;
#X connect 135 0 11 1;
#X restore 18 129 pd AutoRec;
#X obj 22 239 r readyToSave;
#X obj 22 263 t f f;
#X obj 22 287 metro 150;
#X obj 22 331 tgl 40 0 empty empty empty 17 7 0 10 -262144 -1 -1 0
1;
#X msg 54 309 0;
#X msg 209 149 __;
#N canvas 460 150 991 654 Ambiance 0;
#X obj 21 16 declare -path Decoupeur;
#X obj 194 17 declare -stdpath AutoPreset;
#X obj 446 162 decoupeur_ctl AMB atk;
#X obj 393 18 declare -lib iemlib1 -lib iemlib2;
#X obj 56 559 OUT;
#X floatatom 74 498 5 0 0 0 - - -, f 5;
#X obj 55 360 s AMB-metro;
#X obj 61 206 r STEP;
#X obj 61 230 t f f f;
#X obj 84 256 i;
#X obj 84 279 ==;
#X obj 61 309 spigot;
#X obj 59 416 s blong-1-proba;
#X obj 62 394 hsl 128 15 0 1 0 1 empty empty empty -2 -8 0 10 -262144
-1 -1 12500 1;
#X obj 61 333 b;
#X obj 683 301 playerBlong AMB blong-1 amb1;
#X obj 227 289 catch~ amb1-l;
#X obj 276 315 catch~ amb1-r;
#X obj 398 271 catch~ amb1-rev;
#X obj 44 62 sampledec blong-1 atk;
#X obj 43 85 sampledec blong-2 atk;
#X obj 43 107 sampledec blong-3 atk;
#X obj 43 130 sampledec blong-4 atk;
#X obj 42 153 sampledec blong-5 atk;
#X obj 42 175 sampledec blong-6 atk;
#X obj 200 65 sampledec blong-7 atk;
#X obj 199 88 sampledec blong-8 atk;
#X obj 199 110 sampledec blong-9 atk;
#X obj 199 133 sampledec blong-10 atk;
#X obj 198 156 sampledec blong-11 atk;
#X obj 250 470 OUT, f 8;
#X obj 120 284 sel 0;
#X obj 120 316 s amb1-change;
#X obj 399 320 delwrite~ \$0-dA 2000;
#X obj 308 352 delread~ \$0-dA 120;
#X obj 383 66 sampledec fanfare-1 atk;
#X obj 383 88 sampledec fanfare-2 atk;
#X obj 683 166 playerFanfare AMB fanfare-1 amb1;
#X obj 62 448 hsl 128 15 0 1 0 1 empty empty empty -2 -8 0 10 -262144
-1 -1 12300 1;
#X obj 59 470 s fanfare-1-proba;
#X obj 55 534 player fanfare-1;
#N canvas 734 139 618 498 sequence 0;
#X obj 63 103 r STEP;
#X obj 279 311 table AMB-sequence 100;
#X obj 302 258 s AMB-sequence;
#X obj 302 232 list prepend 0;
#X obj 116 102 tabread AMB-sequence;
#X msg 116 77 0;
#X obj 63 127 fmod, f 8;
#X obj 63 151 * 2;
#X obj 63 175 + 1;
#X obj 63 201 tabread AMB-sequence;
#X obj 63 225 t b f;
#X obj 63 273 random 1000;
#X obj 95 249 * 1000;
#X obj 63 298 moses;
#X obj 63 386 s AMB-metro;
#X obj 63 322 b;
#X floatatom 159 268 5 0 0 0 - - -, f 5;
#X msg 314 148 8 1 0 1 0 1 1 1 0 1 1 1 1 0 1 1 0;
#X floatatom 164 154 5 0 0 0 - - -, f 5;
#X msg 281 108 8 1 0 1 1 1 0 1 1 1 1 0 1 1 0 1 0;
#X msg 302 195 8 1 0 1 0 1 0 0 0.5 1 0 1 0 1 0 0 0;
#X obj 162 323 bng 50 250 50 0 empty empty empty 17 7 0 10 -262144
-1 -1;
#X obj 116 6 r AMB-sequence;
#X obj 116 30 b;
#X obj 116 54 del 1;
#X msg 265 66 8 1 0.2 1 0.9 1 0 0.9 1 0.8 1 0.15 1 1 0 1 0.15;
#X obj 25 322 f;
#X msg 162 378 1;
#X floatatom 217 152 5 0 0 0 - - -, f 5;
#X connect 0 0 6 0;
#X connect 0 0 18 0;
#X connect 3 0 2 0;
#X connect 4 0 6 1;
#X connect 4 0 28 0;
#X connect 5 0 4 0;
#X connect 6 0 7 0;
#X connect 7 0 8 0;
#X connect 8 0 9 0;
#X connect 9 0 10 0;
#X connect 9 0 26 0;
#X connect 10 0 11 0;
#X connect 10 1 12 0;
#X connect 10 1 16 0;
#X connect 11 0 13 0;
#X connect 12 0 13 1;
#X connect 13 0 15 0;
#X connect 17 0 3 0;
#X connect 19 0 3 0;
#X connect 20 0 3 0;
#X connect 21 0 15 0;
#X connect 21 0 27 0;
#X connect 22 0 23 0;
#X connect 23 0 24 0;
#X connect 24 0 5 0;
#X connect 25 0 3 0;
#X connect 26 0 14 0;
#X connect 27 0 14 0;
#X restore 256 540 pd sequence;
#X obj 889 63 bng 15 250 50 0 empty empty empty 17 7 0 10 -258113 -1
-1;
#X obj 642 68 bng 15 250 50 0 empty empty empty 17 7 0 10 -4034 -1
-1;
#X obj 663 63 apmaster AMB-SETTING;
#X obj 640 87 apmasterfile AMB-SETTING AMB.setting;
#X obj 682 187 playerFanfare AMB fanfare-1 amb1;
#X obj 683 211 playerFanfare AMB fanfare-1 amb1;
#X obj 682 232 playerFanfare AMB fanfare-1 amb1;
#X obj 682 256 playerFanfare AMB fanfare-1 amb1;
#X obj 681 277 playerFanfare AMB fanfare-1 amb1;
#X obj 307 379 rev2~ 85 60 5000 40;
#X obj 398 295 lop~ 3000;
#X obj 466 353 delread~ \$0-dA 300;
#X obj 648 30 loadbang;
#X obj 249 434 *~ 0.08;
#X obj 304 432 *~ 0.08;
#X obj 465 380 rev3~ 80 91 3000 70;
#X obj 495 500 vline~;
#X msg 495 441 4 0.01 \, 0 50 0.1;
#X msg 177 252 1;
#X obj 683 320 playerBlong AMB blong-1 amb1;
#X obj 683 342 playerBlong AMB blong-1 amb1;
#X obj 683 361 playerBlong AMB blong-1 amb1;
#X obj 682 384 playerBlong AMB blong-1 amb1;
#X obj 682 403 playerBlong AMB blong-1 amb1;
#X obj 682 425 playerBlong AMB blong-1 amb1;
#X obj 682 444 playerBlong AMB blong-1 amb1;
#X connect 5 0 40 0;
#X connect 7 0 8 0;
#X connect 8 0 11 0;
#X connect 8 1 9 0;
#X connect 8 2 10 1;
#X connect 9 0 10 0;
#X connect 10 0 11 1;
#X connect 11 0 14 0;
#X connect 11 0 31 0;
#X connect 13 0 12 0;
#X connect 16 0 55 0;
#X connect 17 0 56 0;
#X connect 18 0 52 0;
#X connect 31 0 32 0;
#X connect 34 0 51 0;
#X connect 38 0 39 0;
#X connect 40 0 4 0;
#X connect 40 1 4 1;
#X connect 42 0 45 1;
#X connect 43 0 45 0;
#X connect 51 0 55 0;
#X connect 51 1 56 0;
#X connect 52 0 33 0;
#X connect 53 0 57 0;
#X connect 54 0 43 0;
#X connect 55 0 30 0;
#X connect 56 0 30 1;
#X connect 57 0 55 0;
#X connect 57 1 56 0;
#X connect 58 0 52 0;
#X connect 59 0 58 0;
#X connect 60 0 6 0;
#X restore 19 185 pd Ambiance;
#N canvas 1 81 767 383 MASTER 0;
#X obj 20 125 catch~ MASTER-l;
#X obj 178 123 catch~ MASTER-r;
#X obj 20 153 *~ 1;
#X obj 63 188 limiter~;
#X obj 19 188 z~ 64;
#X obj 19 212 *~;
#X obj 178 150 *~ 1;
#X obj 221 185 limiter~;
#X obj 177 185 z~ 64;
#X obj 177 209 *~;
#X obj 19 236 dac~, f 23;
#X obj 420 37 catch~ MASTERvx;
#X obj 486 159 *~ 3;
#X obj 422 242 +~;
#X obj 422 274 OUT;
#X obj 486 135 hip~ 1500;
#X obj 581 157 hip~ 500;
#X obj 581 184 lop~ 5000;
#X obj 421 158 hip~ 200;
#X obj 45 54 pow 2;
#X obj 45 78 * 8;
#X floatatom 83 80 5 0 0 0 - - -, f 5;
#X obj 487 208 lop~ 5000;
#X obj 486 182 lop~ 6000;
#X obj 510 328 throw~ MASTERvx;
#X obj 511 294 vline~;
#X obj 45 30 r masterVol;
#X msg 511 269 0.4 0.01 \, 0 50 0.1;
#X obj 580 105 delwrite~ \$0-dMV 200;
#X obj 582 209 rev3~ 105 60 6000 50;
#X obj 609 51 delread~ \$0-dMV 130;
#X obj 609 75 *~ 0.2;
#X obj 581 134 delread~ \$0-dMV 100;
#X obj 288 38 loadbang;
#X obj 288 85 s masterVol;
#X msg 288 62 0.6;
#X floatatom 93 52 5 0 0 0 - - -, f 5;
#X connect 0 0 2 0;
#X connect 1 0 6 0;
#X connect 2 0 3 0;
#X connect 2 0 4 0;
#X connect 3 0 5 1;
#X connect 4 0 5 0;
#X connect 5 0 10 0;
#X connect 6 0 7 0;
#X connect 6 0 8 0;
#X connect 7 0 9 1;
#X connect 8 0 9 0;
#X connect 9 0 10 1;
#X connect 11 0 15 0;
#X connect 11 0 18 0;
#X connect 11 0 28 0;
#X connect 12 0 23 0;
#X connect 13 0 14 0;
#X connect 13 0 14 1;
#X connect 15 0 12 0;
#X connect 16 0 17 0;
#X connect 17 0 29 0;
#X connect 18 0 13 0;
#X connect 19 0 20 0;
#X connect 20 0 6 1;
#X connect 20 0 2 1;
#X connect 20 0 21 0;
#X connect 22 0 13 1;
#X connect 23 0 22 0;
#X connect 25 0 24 0;
#X connect 26 0 19 0;
#X connect 26 0 36 0;
#X connect 27 0 25 0;
#X connect 29 0 13 1;
#X connect 30 0 31 0;
#X connect 31 0 28 0;
#X connect 32 0 16 0;
#X connect 33 0 35 0;
#X connect 35 0 34 0;
#X restore 283 346 pd MASTER;
#X obj 440 183 tgl 40 0 CLOCKON CLOCKON CLOCKON 0 -8 0 14 -4034 -1
-1 0 1;
#X obj 460 19 loadbang;
#X obj 440 104 t b b;
#X obj 421 61 bng 15 250 50 0 empty empty empty 17 7 0 10 -262144 -1
-1;
#X obj 460 43 del 100;
#N canvas 580 206 595 584 listBanks 0;
#X obj 112 96 r sloganDir;
#X obj 96 202 folder_list;
#X obj 73 175 t b s b;
#X obj 163 256 list;
#X obj 163 281 t a;
#X obj 73 303 list;
#X msg 177 230 list;
#X obj 73 122 symbol;
#X obj 73 89 bng 15 250 50 0 empty empty empty 17 7 0 10 -262144 -1
-1;
#X msg 73 144 symbol \$1/banks/*;
#X obj 96 230 split_path;
#X obj 73 330 s banksList;
#X obj 73 31 loadbang;
#X obj 73 55 del 50;
#X obj 396 119 r banksList;
#X obj 396 143 t a a;
#X obj 396 168 list length;
#X obj 356 333 list;
#X obj 356 359 list split;
#X obj 389 382 list split 1;
#X obj 343 242 s selBankNum;
#X obj 356 281 r selBankNum;
#X obj 356 305 t b f;
#X obj 361 84 r selBankNum;
#X obj 343 111 +;
#X symbolatom 389 423 10 0 0 0 - - -, f 10;
#X obj 389 449 s BANK;
#X obj 323 27 r nextBank;
#X obj 242 26 r prevBank;
#X obj 343 218 clip 0 1;
#X obj 396 192 - 1;
#X msg 242 50 1;
#X msg 323 51 -1;
#X connect 0 0 7 1;
#X connect 1 0 10 0;
#X connect 2 0 5 0;
#X connect 2 1 1 0;
#X connect 2 2 6 0;
#X connect 3 0 4 0;
#X connect 4 0 3 1;
#X connect 4 0 5 1;
#X connect 5 0 11 0;
#X connect 6 0 4 0;
#X connect 7 0 9 0;
#X connect 8 0 7 0;
#X connect 9 0 2 0;
#X connect 10 1 3 0;
#X connect 12 0 13 0;
#X connect 13 0 8 0;
#X connect 14 0 15 0;
#X connect 15 0 16 0;
#X connect 15 1 17 1;
#X connect 16 0 30 0;
#X connect 17 0 18 0;
#X connect 18 1 19 0;
#X connect 19 0 25 0;
#X connect 21 0 22 0;
#X connect 22 0 17 0;
#X connect 22 1 18 1;
#X connect 23 0 24 1;
#X connect 24 0 29 0;
#X connect 25 0 26 0;
#X connect 27 0 32 0;
#X connect 28 0 31 0;
#X connect 29 0 20 0;
#X connect 30 0 29 2;
#X connect 31 0 24 0;
#X connect 32 0 24 0;
#X restore 16 44 pd listBanks;
#X obj 381 274 bng 40 250 50 0 nextBank nextBank nextBank 0 -7 0 14
-257985 -1 -1;
#X obj 382 338 bng 40 250 50 0 prevBank prevBank prevBank 0 -7 0 14
-260097 -1 -1;
#N canvas 63 372 733 503 partB 0;
#X msg 51 26 2.5;
#X msg 102 27 2.5 8 10.5;
#X obj 409 21 table partsTab 50;
#X obj 205 79 list prepend 0;
#X obj 205 152 s partsTab;
#X obj 205 103 t a b;
#X msg 237 128 const 0;
#X floatatom 344 381 5 0 0 0 - - -, f 5;
#X obj 399 75 r STEP;
#X msg 399 125 50;
#X obj 399 99 t b b f, f 14;
#X obj 399 149 until;
#X obj 399 173 i, f 7;
#X obj 464 173 + 1;
#X msg 446 149 0;
#X obj 399 197 t f f, f 8;
#X obj 399 221 tabread partsTab;
#X obj 399 245 sel 0, f 8;
#X obj 399 269 t b b;
#X obj 357 334 bng 15 250 50 0 empty empty empty 17 7 0 10 -262144
-1 -1;
#X obj 507 298 t b b;
#X obj 507 321 f;
#X obj 399 377 change;
#X msg 205 27 1.5 4 5.5;
#X floatatom 344 167 5 0 0 0 - - -, f 5;
#X obj 507 246 >;
#X obj 507 270 sel 1;
#X msg 399 301 1;
#X obj 507 345 mod 2;
#X obj 293 25 r BANKpartB;
#X obj 399 406 s stepIsPartB;
#X msg 366 300 0;
#X obj 293 49 t a b;
#X floatatom 519 99 5 0 0 0 - - -, f 5;
#X connect 0 0 3 0;
#X connect 3 0 5 0;
#X connect 5 0 4 0;
#X connect 5 1 6 0;
#X connect 6 0 4 0;
#X connect 8 0 10 0;
#X connect 8 0 33 0;
#X connect 9 0 11 0;
#X connect 10 0 9 0;
#X connect 10 1 14 0;
#X connect 10 2 25 1;
#X connect 11 0 12 0;
#X connect 12 0 13 0;
#X connect 12 0 15 0;
#X connect 13 0 12 1;
#X connect 14 0 12 1;
#X connect 15 0 16 0;
#X connect 15 1 21 1;
#X connect 16 0 17 0;
#X connect 17 0 18 0;
#X connect 17 1 25 0;
#X connect 18 0 27 0;
#X connect 18 1 11 1;
#X connect 20 0 21 0;
#X connect 20 1 11 1;
#X connect 21 0 28 0;
#X connect 22 0 7 0;
#X connect 22 0 30 0;
#X connect 23 0 3 0;
#X connect 25 0 26 0;
#X connect 26 0 20 0;
#X connect 27 0 22 0;
#X connect 28 0 22 0;
#X connect 29 0 32 0;
#X connect 31 0 22 0;
#X connect 32 0 3 0;
#X connect 32 1 31 0;
#X restore 75 71 pd partB;
#X msg 309 116 ouinon;
#X msg 371 126 plusmoins;
#N canvas 545 126 894 749 GPIO 0;
#X obj 61 13 netreceive -u 55443;
#X obj 61 38 route 1 2 3 4 5, f 51;
#X obj 61 101 tgl 15 0 empty empty confirm 17 7 0 10 -262144 -1 -1
0 1;
#X obj 131 101 tgl 15 0 empty empty abandon 17 7 0 10 -262144 -1 -1
0 1;
#X obj 273 92 tgl 15 0 empty empty + 17 7 0 10 -262144 -1 -1 0 1;
#X obj 202 89 tgl 15 0 empty empty - 17 7 0 10 -262144 -1 -1 0 1;
#X obj 344 98 tgl 15 0 empty empty empty 17 7 0 10 -262144 -1 -1 0
1;
#X obj 273 112 s button+;
#X obj 202 111 s button-;
#X obj 81 250 * 2;
#X obj 61 62 == 0;
#X obj 131 63 == 0;
#X obj 202 67 == 0;
#X obj 273 68 == 0;
#X obj 344 67 == 0;
#X obj 81 274 t b f;
#X obj 81 298 +;
#X obj 61 160 s buttonConfirm;
#X obj 131 137 s buttonAbort;
#X obj 61 201 r buttonConfirm;
#X obj 81 226 r buttonAbort;
#X obj 196 180 r buttonConfirm;
#X obj 311 180 r buttonAbort;
#X obj 196 204 sel 1;
#X obj 311 202 sel 1;
#X obj 311 226 s abort;
#X obj 196 228 s save;
#X obj 80 397 sel 3;
#X obj 128 397 r CLOCKON;
#X obj 80 471 s CLOCKON;
#X obj 80 424 f;
#X obj 80 448 == 0;
#X obj 224 280 r button+;
#X obj 344 278 r button-;
#X obj 81 323 s buttonMod;
#X obj 80 371 r buttonMod;
#X obj 319 336 r buttonMod;
#X obj 224 305 list prepend 1;
#X obj 344 304 list prepend -1;
#X obj 224 386 route 0 1 2, f 54;
#X obj 224 418 route -1 1, f 13;
#X obj 268 464 s nextBank;
#X obj 224 486 s prevBank;
#X obj 224 442 sel 1;
#X obj 268 442 sel 1;
#X msg 360 413 \$2 \$1;
#X obj 360 437 route 1;
#X obj 404 462 r masterVol;
#X obj 360 538 s masterVol;
#X obj 360 514 clip 0 1;
#X obj 360 490 +;
#X obj 360 461 * 0.1;
#X obj 494 424 route -1 1, f 13;
#X obj 494 448 sel 1;
#X obj 538 448 sel 1;
#X obj 538 470 s nextItem;
#X obj 494 492 s prevItem;
#X obj 544 664 ggee/shell;
#X obj 524 40 r LEDs;
#X obj 524 64 route 1 2 3 4, f 30;
#X msg 524 143 14 \$1;
#X msg 575 143 15 \$1;
#X msg 627 143 18 \$1;
#X msg 679 143 23 \$1;
#X obj 524 182 t a;
#X obj 524 115 change;
#X obj 575 115 change;
#X obj 627 115 change;
#X obj 679 115 change;
#X obj 524 89 != 0;
#X obj 575 89 != 0;
#X obj 627 89 != 0;
#X obj 679 89 != 0;
#X obj 646 367 loadbang;
#X obj 646 517 ggee/shell;
#X msg 646 451 gpio -g mode \$2 \$1 && gpio -g mode \$3 \$1 && gpio
-g mode \$4 \$1 && gpio -g mode \$5 \$1, f 22;
#X msg 666 426 list in 14 15 18 23;
#X msg 646 399 list out 14 15 18 23;
#X obj 760 85 s LEDs;
#X msg 758 55 1 \$1;
#X obj 768 33 tgl 15 0 empty empty empty 17 7 0 10 -262144 -1 -1 0
1;
#X msg 544 637 echo gpio -g write \$1 \$2 | at now 2> /dev/null&;
#X text 220 10 bleu-ok jaune-cancel -- blanc- vert+;
#X obj 41 502 r readyToSave;
#X obj 221 570 r STEP;
#X obj 221 594 == 0;
#X obj 221 620 tgl 15 0 empty empty empty 17 7 0 10 -262144 -1 -1 0
1;
#X obj 280 552 r STEP;
#X obj 280 668 tgl 15 0 empty empty empty 17 7 0 10 -262144 -1 -1 1
1;
#X obj 280 598 * 2;
#X obj 280 620 mod 2;
#X obj 280 644 == 0;
#X msg 221 640 3 \$1;
#X msg 278 686 4 \$1;
#X obj 280 576 pipe 50;
#X obj 573 265 netsend -u;
#X msg 573 236 connect localhost 55444;
#X msg 523 208 send \$1 \$2;
#X obj 523 232 t a b;
#X obj 555 289 f;
#X obj 555 313 sel 0;
#X obj 221 710 s LEDs;
#X obj 41 528 t f f;
#X obj 41 552 metro 150;
#X obj 41 606 tgl 40 0 empty empty empty 17 7 0 10 -262144 -1 -1 0
1;
#X msg 73 574 0;
#X msg 41 650 0 \$1 \, 1 \$1;
#X obj 10 499 tgl 15 0 empty empty empty 17 7 0 10 -262144 -1 -1 0
1;
#X obj 224 362 list prepend 0;
#X obj 112 526 r micDetect;
#X obj 112 580 spigot 1;
#X obj 165 555 == 0;
#X connect 0 0 1 0;
#X connect 1 0 10 0;
#X connect 1 1 11 0;
#X connect 1 2 12 0;
#X connect 1 3 13 0;
#X connect 1 4 14 0;
#X connect 2 0 17 0;
#X connect 3 0 18 0;
#X connect 4 0 7 0;
#X connect 5 0 8 0;
#X connect 9 0 15 0;
#X connect 10 0 2 0;
#X connect 11 0 3 0;
#X connect 12 0 5 0;
#X connect 13 0 4 0;
#X connect 14 0 6 0;
#X connect 15 0 16 0;
#X connect 15 1 16 1;
#X connect 16 0 34 0;
#X connect 19 0 16 0;
#X connect 20 0 9 0;
#X connect 21 0 23 0;
#X connect 22 0 24 0;
#X connect 23 0 26 0;
#X connect 24 0 25 0;
#X connect 27 0 30 0;
#X connect 28 0 30 1;
#X connect 30 0 31 0;
#X connect 31 0 29 0;
#X connect 32 0 37 0;
#X connect 33 0 38 0;
#X connect 35 0 27 0;
#X connect 36 0 108 1;
#X connect 37 0 108 0;
#X connect 38 0 108 0;
#X connect 39 0 40 0;
#X connect 39 1 45 0;
#X connect 39 2 52 0;
#X connect 40 0 43 0;
#X connect 40 1 44 0;
#X connect 43 0 42 0;
#X connect 44 0 41 0;
#X connect 45 0 46 0;
#X connect 46 0 51 0;
#X connect 47 0 50 1;
#X connect 49 0 48 0;
#X connect 50 0 49 0;
#X connect 51 0 50 0;
#X connect 52 0 53 0;
#X connect 52 1 54 0;
#X connect 53 0 56 0;
#X connect 54 0 55 0;
#X connect 58 0 59 0;
#X connect 59 0 69 0;
#X connect 59 1 70 0;
#X connect 59 2 71 0;
#X connect 59 3 72 0;
#X connect 60 0 64 0;
#X connect 61 0 64 0;
#X connect 62 0 64 0;
#X connect 63 0 64 0;
#X connect 64 0 97 0;
#X connect 65 0 60 0;
#X connect 66 0 61 0;
#X connect 67 0 62 0;
#X connect 68 0 63 0;
#X connect 69 0 65 0;
#X connect 70 0 66 0;
#X connect 71 0 67 0;
#X connect 72 0 68 0;
#X connect 73 0 77 0;
#X connect 75 0 74 0;
#X connect 76 0 75 0;
#X connect 77 0 75 0;
#X connect 79 0 78 0;
#X connect 80 0 79 0;
#X connect 81 0 57 0;
#X connect 83 0 102 0;
#X connect 83 0 111 0;
#X connect 84 0 85 0;
#X connect 85 0 86 0;
#X connect 86 0 92 0;
#X connect 87 0 94 0;
#X connect 88 0 93 0;
#X connect 89 0 90 0;
#X connect 90 0 91 0;
#X connect 91 0 88 0;
#X connect 92 0 101 0;
#X connect 93 0 101 0;
#X connect 94 0 89 0;
#X connect 95 0 99 1;
#X connect 96 0 95 0;
#X connect 97 0 98 0;
#X connect 98 0 95 0;
#X connect 98 1 99 0;
#X connect 99 0 100 0;
#X connect 100 0 96 0;
#X connect 102 0 103 0;
#X connect 102 1 105 0;
#X connect 103 0 104 0;
#X connect 104 0 106 0;
#X connect 105 0 104 0;
#X connect 106 0 101 0;
#X connect 107 0 102 0;
#X connect 108 0 39 0;
#X connect 109 0 110 0;
#X connect 110 0 104 0;
#X connect 111 0 110 1;
#X restore 283 368 pd GPIO;
#X obj 526 231 vsl 15 128 0 1 0 0 masterVol masterVol masterVol 0 -9
0 10 -258113 -1 -1 7620 1;
#X obj 456 276 bng 40 250 50 0 nextItem nextItem nextItem 0 -7 0 14
-4034 -1 -1;
#X obj 457 340 bng 40 250 50 0 prevItem prevItem prevItem 0 -7 0 14
-13381 -1 -1;
#X obj 146 153 r BANK;
#X obj 146 177 symbol;
#X symbolatom 146 201 10 0 0 0 - - -, f 10;
#X obj 147 224 r currentItem;
#X floatatom 147 248 5 0 0 0 - - -, f 5;
#X connect 1 0 0 0;
#X connect 2 0 3 0;
#X connect 7 0 6 0;
#X connect 9 0 10 0;
#X connect 15 0 6 0;
#X connect 18 0 6 0;
#X connect 20 0 19 0;
#X connect 23 0 24 0;
#X connect 24 0 25 0;
#X connect 24 1 27 0;
#X connect 25 0 26 0;
#X connect 27 0 26 0;
#X connect 28 0 6 0;
#X connect 32 0 35 0;
#X connect 33 0 31 0;
#X connect 33 1 18 0;
#X connect 34 0 33 0;
#X connect 35 0 33 0;
#X connect 40 0 6 0;
#X connect 41 0 6 0;
#X connect 46 0 47 0;
#X connect 47 0 48 0;
#X connect 49 0 50 0;
