#N canvas 592 104 443 407 10;
#X msg 65 206 -1;
#X obj 65 140 t b b;
#X obj 214 129 random 100;
#X obj 214 151 / 100;
#X obj 65 114 bng 15 250 50 0 empty empty empty 17 7 0 10 -262144 -1
-1;
#X floatatom 251 251 5 0 0 0 - - -, f 5;
#X obj 214 195 + 0.5;
#X obj 65 86 moses 0;
#X obj 65 9 r \$1-metro;
#X floatatom 226 83 5 0 0 0 - - -, f 5;
#X obj 286 162 loadbang;
#X msg 212 218 pitch \$1;
#X obj 214 172 pow 1;
#X obj 304 263 + 1;
#X obj 109 198 / 100;
#X obj 109 220 pow 2;
#X obj 104 301 *~;
#X obj 109 147 b;
#X obj 82 184 bng 15 250 50 0 empty empty empty 17 7 0 10 -262144 -1
-1;
#X obj 109 176 random 200;
#X obj 165 77 * 10000;
#X obj 65 64 random 10000;
#X obj 166 98 +;
#X obj 165 22 r \$2-proba;
#X obj 103 329 throw~ \$3-rev;
#X obj 212 365 throw~ \$3-r;
#X obj 66 363 throw~ \$3-l;
#X obj 65 244 Decoupeur/player \$2;
#X obj 165 49 pow 2;
#X obj 287 49 r \$3-change;
#X obj 287 70 random 3;
#X obj 287 91 sel 0;
#X floatatom 340 277 5 0 0 0 - - -, f 5;
#X msg 304 299 sample fanfare-\$1;
#X obj 303 242 random 2;
#X msg 286 186 smooth 20;
#X obj 289 120 bng 15 250 50 0 empty empty empty 17 7 0 10 -262144
-1 -1;
#X obj 65 32 t b f;
#X obj 121 87 *;
#X connect 0 0 27 0;
#X connect 1 0 0 0;
#X connect 2 0 3 0;
#X connect 3 0 12 0;
#X connect 4 0 1 0;
#X connect 6 0 5 0;
#X connect 6 0 11 0;
#X connect 7 0 4 0;
#X connect 8 0 37 0;
#X connect 10 0 35 0;
#X connect 11 0 27 1;
#X connect 12 0 6 0;
#X connect 13 0 33 0;
#X connect 13 0 32 0;
#X connect 14 0 15 0;
#X connect 15 0 16 1;
#X connect 16 0 24 0;
#X connect 17 0 2 0;
#X connect 17 0 18 0;
#X connect 17 0 19 0;
#X connect 17 0 34 0;
#X connect 19 0 14 0;
#X connect 20 0 9 0;
#X connect 20 0 22 0;
#X connect 21 0 7 0;
#X connect 22 0 38 1;
#X connect 23 0 28 0;
#X connect 27 0 16 0;
#X connect 27 0 26 0;
#X connect 27 1 25 0;
#X connect 27 1 16 0;
#X connect 28 0 20 0;
#X connect 29 0 30 0;
#X connect 30 0 31 0;
#X connect 31 0 17 0;
#X connect 33 0 27 1;
#X connect 34 0 13 0;
#X connect 35 0 27 1;
#X connect 36 0 2 0;
#X connect 37 0 21 0;
#X connect 37 1 38 0;
#X connect 38 0 7 1;
