#N canvas 0 80 408 405 10;
#X msg 65 206 -1;
#X obj 65 140 t b b;
#X obj 192 133 random 100;
#X obj 192 155 / 100;
#X obj 65 114 bng 15 250 50 0 empty empty empty 17 7 0 10 -262144 -1
-1;
#X obj 83 284 *~ 20;
#X obj 84 309 bp~ 800 3;
#X floatatom 238 252 5 0 0 0 - - -;
#X obj 192 199 + 0.5;
#X floatatom 120 232 5 0 0 0 - - -;
#X obj 109 182 random 500;
#X obj 109 205 + 600;
#X obj 84 337 throw~ \$1-\$2-rev;
#X obj 66 363 throw~ \$1-\$2-l;
#X obj 212 364 throw~ \$1-\$2-r;
#X obj 65 86 moses 0;
#X obj 165 22 r \$1-\$2-proba;
#X obj 65 37 r \$1-metro;
#X floatatom 226 83 5 0 0 0 - - -;
#X obj 165 49 pow 2;
#X msg 264 190 smooth 100;
#X obj 263 162 loadbang;
#X msg 190 222 pitch \$1;
#X obj 192 176 pow 1;
#X obj 65 251 Decoupeur/player-nocut \$2;
#X obj 65 64 random 10000;
#X obj 165 77 * 10000;
#X obj 166 98 +;
#X connect 0 0 24 0;
#X connect 1 0 0 0;
#X connect 1 1 2 0;
#X connect 1 1 10 0;
#X connect 2 0 3 0;
#X connect 3 0 23 0;
#X connect 4 0 1 0;
#X connect 5 0 6 0;
#X connect 6 0 12 0;
#X connect 8 0 7 0;
#X connect 8 0 22 0;
#X connect 10 0 11 0;
#X connect 11 0 6 1;
#X connect 11 0 9 0;
#X connect 15 0 4 0;
#X connect 16 0 19 0;
#X connect 17 0 25 0;
#X connect 19 0 26 0;
#X connect 20 0 24 1;
#X connect 21 0 20 0;
#X connect 22 0 24 1;
#X connect 23 0 8 0;
#X connect 24 0 5 0;
#X connect 24 0 13 0;
#X connect 24 1 14 0;
#X connect 25 0 15 0;
#X connect 26 0 18 0;
#X connect 26 0 27 0;
#X connect 27 0 15 1;
